<?xml version="1.0" encoding="UTF-8"?>
<svg id="Layer_1" data-name="Layer 1" xmlns="http://www.w3.org/2000/svg" viewBox="0 0 4503.071 2826.184">
  <g id="_13:_d-LCx" data-name="13: d-LCx">
    <path d="M633.609,1810.377c-6.498,33.627,14.55,65.973,31.307,93.637,112.228,185.273,328.656,410.829,540.835,473.165,277.179,81.433,706.926,18.464,909.024-202.968,46.58-51.036,83.155-111.399,112.111-173.914l142.847,50.823c-95.563,212.418-298.806,341.229-517.966,400.082-271.29,72.853-588.898,74.77-836.636-69.404-239.482-139.37-395.863-386.228-523.356-624.654l2.829-2.841,139.005,56.073ZM2233.933,2014.329c-49.998,111.536-128.859,203.735-232.356,268.685-262.642,164.822-689.968,198.986-958.458,32.797-147.092-91.047-321.441-277.976-403.717-430.283-12.257-22.689-20.597-42.84-20.616-69.384l-99.029-39.95c47.988,96.669,103.564,190.515,167.209,277.771,120.359,165.009,273.153,308.978,468.281,379.719,176.682,64.053,369.174,62.347,553.256,34.256,263.274-40.176,524.79-160.647,645.068-410.962l-119.637-42.649Z"/>
  </g>
  <g id="Heart">
    <path d="M1681.335,642.771c446.463-24.179,696.47,500.505,397.44,831.44-200.047,221.39-553.967,216.356-748.056-10-269.294-314.064-62.805-799.051,350.616-821.44ZM1291.994,893.958l418.792,240.386c125.364-68.017,251.582-134.653,376.306-203.816,11.605-6.435,26.635-13.684,37.257-20.744,2.897-1.926,9.48-4.607,9.479-8.536,0-2.901-27.082-43.177-31.254-48.891-187.217-256.459-565.754-267.47-768.771-23.118-11.128,13.393-33.127,40.968-40.19,55.797-1.394,2.926-2.923,5.546-1.618,8.922ZM1703.747,1624.183v-477l-417.034-243.028c-2.998-.029-4.266,2.134-5.875,4.134-5.327,6.623-14.214,27.148-18.056,35.93-43.68,99.87-51.069,219.278-22.467,324.395,56.117,206.238,248.671,355.658,463.431,355.569ZM1715.747,1149.183v472c6.455,4.838,20.51,3.514,28.979,2.98,283.144-17.861,488.657-283.755,444.44-562.399-7.914-49.869-23.571-98.057-45.932-143.106l-4.446-1.613-423.041,232.138Z"/>
  </g>
  <g id="_5:_LM" data-name="5: LM">
    <path d="M2493.747,1474.183c-44.924,3.133-131.363,20.208-174,34-3.331,1.077-6.075,3.706-9.498,2.73-66.668-30.942-138.296-49.574-212.492-44.741l85.301-143.835c15.666,4.463,31.92,7.145,48.022,9.513,81.921,12.048,164.154,16.816,246.8,21.2l15.868,121.132ZM2469.535,1364.402c-73.142-1.746-146.012-7.193-218.555-16.452-11.019-1.406-57.633-11.582-63.915-9.459l-65.309,113.682c42.919.646,85.556,7.927,126.414,20.586,22.541,6.984,43.774,18.08,66.582,23.59l167.714-32.068-12.932-99.878Z"/>
  </g>
  <g id="_11:_p-LCx" data-name="11: p-LCx">
    <path d="M2429.747,1558.183c-9.191,28.26.767,61.215,2.082,90.918,3.422,77.307,2.355,174.322-12.621,249.544-4.056,20.372-11.271,39.594-16.354,59.646l-167.094,27.887c-2.378-2.839,15.037-40.7,17.518-47.463,51.927-141.521,62.041-256.057,64.571-405.627.152-8.959-2.147-15.204,1.898-24.905,4.848-.272,9.028,1.948,13.346,3.655,29.45,11.642,67.337,31.898,96.654,46.345ZM2409.228,1560.703l-79.461-38.52c-1.708,9.203,1.745,18.35,2.062,26.917,2.504,67.481-4.715,144.972-16.665,211.5-13.021,72.494-34.847,143.172-61.408,211.571l132.526-20.552c3.407-.853,4.29-.623,6.076-3.968,3.738-6.999,8.417-26.764,10.448-35.408,20.826-88.643,18.82-190.472,12.858-280.977-1.546-23.464-.149-47.427-6.436-70.562Z"/>
  </g>
  <g id="_17:_Ramus" data-name="17: Ramus">
    <path d="M2493.747,1474.183c6.224-.434,12.287-1.028,18.473-1.644,90.642,43.457,179.521,92.067,268.163,140.008,151.002,81.666,304.405,165.022,452.705,251.295,205.868,119.763,412.415,270.702,598.487,419.513,99.372,79.473,251.587,200.83,320.996,305.004,5.291,7.941,12.613,16.047,11.17,25.823-3.471.292-6.59.279-9.911-1.085-9.773-4.011-50.876-43.064-63.138-52.858-299.628-239.338-616.668-457.806-955.186-638.814-232.871-124.518-469.031-246.589-705.759-363.241l-9.893-9.11-75.828-35.168-.162-9.618,149.883-30.105ZM4115.727,2564.182c2.276-2.727-16.858-23.674-19.928-27.052-86.86-95.587-199.506-186.827-301.137-266.863-188.684-148.591-389.373-292.533-597.572-412.428-208.751-120.213-428.731-243.726-643.301-352.699-13.215-6.711-38.985-21.699-52.764-20.755l-135.278,25.818c.171,2.499,2.853,3.259,4.611,4.369,23.415,14.779,56.373,26.488,81.906,39.566,264.748,135.607,535.965,269.081,796.829,413.699,298.902,165.705,584.638,373.877,851.71,586.29,1.716,1.365,14.305,10.797,14.923,10.056Z"/>
  </g>
  <g id="_1:_p-RCA" data-name="1: p-RCA">
    <path d="M1707.001,622.947c.688.52,7.099,6.873,6.744,7.215l-164.56,27.656c-31.907-30.589-67.805-57.111-104.814-81.258-13.508-8.813-47.882-32.518-60.732-37.25-2.826-1.041-5.452-1.841-8.495-1.135-78.578,62.824-143.216,136.652-196.236,222.169-15.356,24.768-31.378,62.038-48.301,83.7-7.103,9.092-16.421,13.543-14.743-2.648,2.273-21.926,25.51-72.666,35.53-94.565,34.503-75.405,81.935-151.466,134.402-215.598,4.45-5.439,23.484-23.958,24.949-27.078,1.29-2.749,1.862-5.256.032-7.973-48.683-31.667-101.623-57.855-157.503-74.525-159.535-47.59-326.561-22.644-476.281,44.415l-35.027-104.586c.708-2.614,22.065-11.323,26.751-13.332,262.928-112.736,545.456-64.92,780.071,87.989,18.945,12.347,43.83,34.452,61.91,44.089,2.406,1.282,3.789,2.732,7.038,1.942-6.224-109.306-36.807-217.231-73.064-319.915-13.139-37.209-27.505-74.781-42.894-111.106-3.56-8.402-23.632-42.788-19.163-49.064,2.061-2.445,4.874-2.405,7.729-1.582,1.433.413,20.15,17.182,22.451,19.629,94.038,99.964,147.374,337.579,172.371,471.629,4.539,24.34-.948,34.274,18.555,53.445,30.582,30.059,69.316,52.07,103.28,77.738ZM1683.737,626.173c.935-3.825-1.399-3.849-3.353-5.627-21.713-19.768-95.11-63.966-103.108-88.892-4.681-14.587-4.963-41.582-8.03-57.97-13.979-74.699-33.475-154.89-56.923-227.077-23.136-71.223-52.53-144.312-97.605-204.405l-2.593,4.594c50.02,125.678,109.548,274.089,117.596,410.413.584,9.9,1.617,33.247.016,41.963-1.327,7.229-5.713,5.248-10.69,2.703-16.034-8.199-39.975-30.097-56.668-41.324-210.537-141.598-461.46-206.236-710.208-128.944-32.201,10.005-63.761,22.347-94.564,35.873l24.171,82.711c133.667-58.207,283.697-83.884,427.996-53.035,78.803,16.847,152.83,51.066,219.562,95.406,5.059,8.622-19.72,29.607-25.537,36.673-43.838,53.257-82.179,110.194-115.095,170.905-12.651,23.333-26.551,49.051-34.937,74.042,3.778-1.52,6.142-5.395,8.443-8.537,14.671-20.033,27.03-45.03,41.908-66.092,33.447-47.35,76.476-95.77,119.601-134.399,6.142-5.502,49.955-41.975,53.382-42.552,52.911,28.292,104.745,61.925,151.597,99.629,4.629,3.725,24.061,22.809,26.454,23.534,3.763,1.14,7.539.448,11.334.157,37.597-2.88,78.975-16.995,117.251-19.751Z"/>
  </g>
  <g id="_16:_R-PLB" data-name="16: R-PLB">
    <path d="M451.24,1744.69c124.87,205.898,245.224,416.349,382.874,614.126,84.166,120.93,187.609,252.35,336.06,293.94,98.331,27.549,237.031,11.849,330.603-28.542,18.685-8.066,35.322-19.598,53.828-27.914l28.726,75.38c.759,2.848,1.077,5.879-.549,8.528-2.178,3.548-66.727,30.437-76,34.012-277.168,106.855-500.138,39.248-682.987-187.085-61.797-76.493-105.416-158.35-157.216-240.784-107.267-170.702-222.034-337.02-327.188-508.812-3.855-6.298-9.919-11.88-14.193-17.927l14.568-51.433,111.474,36.511ZM349.034,1722.341c-2.775.908-13.812,28.75-10.385,33.873,98.102,155.641,202.41,307.739,300.727,463.339,41.901,66.314,79.998,135.511,123.106,200.894,157.491,238.87,352.821,387.479,654.108,309.58,53.225-13.762,104.628-34.662,154.315-57.754l-22.259-58.067c-60.605,33.953-130.771,54.21-199.924,61.953-261.29,29.259-399.235-126.193-533.799-322.153-132.605-193.108-250.338-399.33-373.15-598.85-2.438-3.456-5.802-4.843-9.469-6.531-14.112-6.499-61.809-22.913-76.479-25.583-2.262-.412-4.401-1.483-6.792-.7Z"/>
  </g>
  <g id="_7:_m-LAD" data-name="7: m-LAD">
    <path d="M3157.946,1236.366c56.021-18.496,110.976-44.43,163.145-71.838,100.612-52.858,200.956-118.071,278.406-201.594l2.137-5.863c11.667-104.43,15.803-211.181-.045-315.729-3.047-20.099-13.26-49.116-13.904-68.269-.424-12.63,8.804-10.468,16.15-3.978,50.428,44.547,57.878,237.84,59.993,304.007.175,5.477-2.109,29.63-1.14,31.131,2.471,3.829,5.059.818,7.7-.405,36.128-27.417,78.534-50.15,114.061-77.94,4.05-3.168,6.153-11.382,12.047-9.575l117.028,137.27c1.837,6.998-8.699,9.237-12.784,12.596-101.736,83.658-200.76,169.667-314.384,237.616-117.799,70.446-270.879,146.488-400.315,191.691-3.587,1.253-8.37,4.124-10.017-.576l-18.079-158.543ZM3170.036,1246.46l14.628,131.802,5.61,1.593c242.908-92.996,469.761-218.751,665.507-390.638l41.774-37.705-100.775-118.964-140.072,93.597c-4.418-.078-7.216-4.797-7.055-8.868-2.387-96.223,1.445-207.407-31.336-298.665-2.169-6.038-5.135-14.747-10.55-18.429.127,21.978,6.939,43.491,9.723,65.256,12.906,100.885,9.915,203.221-5.998,303.488-120.106,126.835-280.165,213.675-441.456,277.532Z"/>
  </g>
  <g id="_8:_d-LAD" data-name="8: d-LAD">
    <path d="M3924.99,947.396c-2.091,1.662-4.202,3.291-6.633,4.472-4.294.611-16.805-19.978-20.659-24.636-27.059-32.701-55.695-68.819-83.963-100.037-3.914-4.323-15.066-7.552-11.093-15.023,120.073-83.495,240.518-167.755,354.05-260.044,73.703-59.913,175.597-147.59,227.872-226.128,12.772-19.188,37.619-61.473,15.102-80.736-27.317-23.369-105.737-19.446-140.894-17.056-9.856.67-40.396,8.614-47.045,2.991l-5.991-77.027,92.929-6.073c127.773,3.437,250.182,20.938,187.468,181.47-66.578,170.422-279.702,361.08-414.359,485.641-45.936,42.492-98.476,93.784-146.784,132.185ZM4219.75,220.19c60.646-6.06,243.88-31.33,192.339,83.336-12.361,27.501-39.315,59.809-59.314,82.686-75.708,86.605-172.173,164.617-263.199,234.801-88.06,67.897-179.613,131.274-269.833,196.244l97.296,116.613c2.713.508,5.588-2.182,7.7-3.709,20.959-15.156,48.665-42.811,69.036-60.949,43.887-39.076,87.394-79.524,130-120,103.494-98.322,220.325-206.514,297.237-326.763,30.955-48.397,101.661-166.233,53.522-218.052-45.11-48.558-188.404-47.156-249.662-38.09-2.77.41-8.13,2.142-8.781,5.058l3.66,48.825Z"/>
  </g>
  <g id="_6:_p-LAD" data-name="6: p-LAD">
    <path d="M3151.685,1242.246l19.823,158.783-3.079,2.839c-21.536,1.945-42.39,12.347-63.155,18.842-155.536,48.651-355.849,88.92-518.511,67.456-26.589-3.508-54.881-16.548-81.058-22.942l-1.63-2.37-18.327-114.679c36.615,2.541,74.217,3.179,111.081,2.09,92.025-2.719,191.093-14.224,281.377-32.623,60.186-12.266,121.431-29.198,178.578-51.421,3.292-5.467-2.504-45.521-3.017-55.059-5.116-95.005-12.526-191.899-28.23-285.77-4.671-27.923-17.962-68.458-19.65-94.512-.228-3.518-.846-6.84,3.099-8.548,5.422-1.466,7.517,1.658,10.833,4.778,35.791,33.668,66.342,138.225,77.346,186.653,16.956,74.627,26.182,152.643,28.888,229.108l4.285,3.013,21.347-5.64ZM3143.741,1258.17l-26.133,3.144-1.566-2.427c-6.447-71.139-11.074-142.729-25.222-212.777-12.779-63.271-31.84-126.967-62.063-183.917-3.364,2.437-3.162,4.749-2.658,8.466,1.544,11.395,7.048,26.854,9.141,39.031,17.349,100.907,29.823,213.395,34.591,315.409.382,8.175,1.214,51.415-2.567,54.614-43.218,14.706-86.69,28.908-131.1,39.886-114.296,28.256-239.532,42.889-357.334,46.666-26.958.864-54.123-.822-81.076-.069,4.938,13.09,11.858,87.872,18.038,92.942,2.052,1.684,39.49,11.158,45.538,12.462,157.269,33.903,390.351-12.544,542.844-61.991,7.3-2.367,54.603-17.693,55.309-20.574l-15.741-130.866Z"/>
  </g>
  <g id="_2:_m-RCA" data-name="2: m-RCA">
    <path d="M639.555,364.374l31.315,103.791c-149.021,83.551-276.616,204.198-385.088,335.017,26.091,17.351,56.146,29.256,84.008,43.958,55.795,29.44,114.926,61.376,166.589,97.411,25.97,18.114,80.856,59.464,96.261,85.729,4.846,8.263,4.87,16.798-6.981,13.033-9.473-3.01-31.854-19.59-42.57-25.472-90.72-49.796-219.117-113.839-319.328-136.672-6.845-1.56-21.005-5.756-27.061-5.181-11.741,1.115-16.611,29.531-24.938,25.296l-82.09-86.103c43.333-66.017,91.922-128.604,145.047-187.026,93.254-102.552,216.649-204.447,345.681-258.319,3.871-1.616,16.271-7.498,19.155-5.462ZM633.557,380.37c-3.327-1.071-6.213.335-9.253,1.379-26.206,8.996-70.102,35.93-95.158,50.832-104.034,61.875-182.679,133.409-262.426,223.574-44.093,49.853-85.755,102.603-120.699,159.374l64.727,68.619c11.857-11.306,10.115-23.804,29.491-21.454,60.997,7.398,164.555,53.258,222.228,79.771,41.862,19.245,81.928,44.301,122.625,63.374,2.89,1.355,5.089,3.056,8.647,2.333.518-4.095-3.409-6.511-5.965-9.015-9.406-9.215-27.053-21.574-38.197-29.803-84.231-62.202-182.784-109.46-276.607-155.384-9.488-7.411,7.129-23.284,12.834-30.732,27.742-36.216,64.506-74.732,96.886-107.114,81.369-81.371,173.949-158.304,274.711-214.303l-23.843-81.451Z"/>
  </g>
  <g id="_3:_d-RCA" data-name="3: d-RCA">
    <path d="M361.739,1644.193l-41.987,107.103c-3.463,1.722-19.807-4.187-25.212-4.907-363.654-48.462-330.086-579.614-218.509-828.921,12.989-29.023,30.527-55.44,44.611-83.389,1.909-3.788-.081-9.085,4.144-11.891,6.847-1.806,18.382,16.385,22.908,21.048,21.16,21.806,44.726,42.422,63.771,65.6-32.05,51.162-53.644,108.691-69.148,166.917-30.979,116.337-51.93,322.345-2.287,433.148,40.582,90.579,122.766,138.138,221.71,135.292ZM345.737,1656.194c-84.087,1.17-162.554-44.244-204.334-116.668-51.04-88.477-48.259-205.424-39.636-304.323,9.868-113.192,37.98-227.062,94.044-326.167l-1.956-5.959-61.081-60.922-5-1.967c-22.738,47.67-47.203,94.343-64.571,144.452-60.097,173.396-80.268,476.399,30.913,632.172,52.264,73.226,131.39,112.953,220.387,121.528l31.233-82.147Z"/>
  </g>
  <g id="_12:_OM1" data-name="12: OM1">
    <path d="M3217.595,2480.01l-10.522-.04c-148.066-121.749-311.362-226.241-485.973-306.14-154.862-70.862-318.974-116.764-479.712-172.289-2.004-.692-7.62-2.707-7.612-5.316,3.483.093,3.573-3.221,6.906-4.197,51.026-14.938,117.236-14.378,169.883-27.828,195.69,66.756,390.404,153.019,559.811,272.354,81.084,57.118,176.527,136.892,234.164,217.836,3.286,4.615,16.84,20.358,13.056,25.62ZM3150.583,2409.347c-190.27-210.83-480.488-340.057-743.975-433.061l-136.851,22.907c84.925,33.075,173.945,54.018,259.916,84.064,228.879,79.992,444.583,197.505,635.113,346.897l2.948-.959c-4.551-7.532-11.331-13.401-17.15-19.849Z"/>
  </g>
  <g id="_14:_OM2" data-name="14: OM2">
    <path d="M3081.737,2826.184l-10.708-2.285c-227.698-181.088-490.54-325.05-767.314-416.684-23.094-7.646-53.126-12.694-74.548-21.452-4.288-1.753-16.376-7.637-13.141-13.329l62.636-56.381,5.597-1.586c26.558,16.178,58.397,24.924,87.425,36.78,219.965,89.842,496.647,227.492,659.091,402.909,9.627,10.396,45.883,50.026,49.892,60.104,1.583,3.979,1.264,7.816,1.07,11.926ZM3019.048,2758.882c-49.452-52.771-117.955-106.2-177.471-147.529-169.365-117.608-361.66-204.148-553.348-278.773l-8.44.603-42.01,38.061c-.736,3.255,2.628,4.114,4.808,5.098,8.34,3.761,22.274,5.493,31.585,8.415,75.547,23.705,150.25,51.311,223.582,82.534,189.123,80.523,369.131,185.103,531.002,308.881,2.734-4.639-6.35-13.706-9.709-17.291Z"/>
  </g>
  <g id="_4:_R-PDA" data-name="4: R-PDA">
    <path d="M1155.085,1328.381c2.672-.619,3.096,1.683,4.395,3.058,12.41,13.139,22.605,44.241,34.796,59.367,4.23,9.948-7.671,8.491-13.93,10.976-96.346,38.243-193.426,84.896-287.951,128.049-136.854,62.477-273.328,126.388-409.365,190.635-10.55,4.983-21.499,9.979-30.558,17.312l-106.668-36.721,23.917-60.034c17.606,1.251,36.439-3.597,53.599-8.267,54.713-14.891,115.183-40.683,168.4-61.6,179.137-70.412,362.119-148.996,537.375-228.625,9.002-4.09,17.581-8.972,25.991-14.149ZM374.202,1656.642l-15.628,43.617c23.823,5.098,52.076,20.918,75.106,25.067,3.55.64,6.549,1.552,10.152.017,218.664-101.453,435.965-206.228,656.557-303.518,22.879-10.091,53.784-19.619,74.775-31.216,2.208-1.22,4.687-1.822,4.371-5.096-.218-2.262-20.654-36.8-22.825-39.312-1.041-1.204-1.655-2.535-3.572-1.76-85.984,39.224-172.525,77.535-259.414,114.719-103.043,44.096-207.671,89.281-312.024,129.976-67.644,26.38-136.038,53.467-207.497,67.506Z"/>
  </g>
  <g id="_15:_L-PDA" data-name="15: L-PDA">
    <path d="M1247.631,1480.012c-110.016,53.872-222.05,103.664-332.602,156.454-63.035,30.1-130.054,59.764-191.325,92.675-34.84,18.713-70.514,38.351-89.157,74.892l-148.785-59.874,719.897-333.155c3.024-.823,4.352,2.563,5.731,4.542,13.31,19.101,24.667,43.998,36.242,64.467ZM517.744,1746.162l110.098,43.067c21.462-33.989,57.458-53.441,91.863-72.089,159.994-86.722,336.488-157.252,500.753-237.248,3.034-1.477,11.434-4.204,11.046-8.339l-26.711-45.132c-113.48,54.141-228.52,104.91-343.066,156.742-8.013,3.626-17.896,5.345-26.694,9.306-105.771,47.619-208.423,102.593-314.704,149.238l-2.585,4.456Z"/>
  </g>
  <g id="_10:_D2" data-name="10: D2">
    <path d="M3783.76,1148.145c-1.841-2.655,5.223-8.258,7.049-9.899,19.315-17.364,43.319-33.416,63.656-49.92,5.57,3.305,7.53,9.834,12.242,13.896,15.315,13.201,43.744,27.393,61.669,40.331,102.369,73.89,199.221,179.42,254.128,293.872,3.515,7.326,14.796,30.004,15.919,36.208.916,5.062-1.593,10.865-7.31,9.318-4.726-1.278-26.767-29.907-32.34-35.796-108.826-114.991-243.796-210.449-375.015-298.01ZM4011.028,1224.895c-29.53-28.844-71.329-59.247-105.839-83.154-8.188-5.672-49.782-34.486-55.945-33.214-7.448,1.538-36.357,31.139-45.461,36.658,45.24,29.661,88.756,61.551,132.091,93.871,63.422,47.301,127.122,96.478,184.925,151.075,14.547,13.74,27.394,29.811,42.927,42.053.437-3.442-.271-6.27-1.537-9.443-5.601-14.035-27.069-45.562-36.387-59.612-32.301-48.705-73.155-97.582-114.774-138.234Z"/>
  </g>
  <g id="_9:_D1" data-name="9: D1">
    <path d="M3358.775,1388.759c15.204,17.786,36.219,28.314,54.764,42.632,90.509,69.876,181.634,159.474,238.552,259.448,8.375,14.71,27.357,48.211,30.728,63.337.733,3.289,2.316,6.288-1.056,9.036l-5.058,2.451c-29.868-31.868-58.044-65.371-89.905-95.532-65.506-62.011-143.18-121.132-217.223-172.777-11.968-8.348-95.819-60.339-95.792-66.171l84.99-42.423ZM3649.737,1714.173c2.66-2.756-35.137-59.132-39.548-65.432-56.662-80.934-135.144-156.821-214.614-215.386-6.301-4.644-34.549-25.86-39.3-26.836-2.695-.554-4.294-.498-6.956.126-12.688,2.97-34.083,21.409-49.081,23.998l-2.381,4.572c115.04,75.015,228.998,155.887,325.941,253.917,2.449,2.477,22.49,28.615,25.937,25.042Z"/>
  </g>
  <g id="_18:_L-PLB" data-name="18: L-PLB">
    <path d="M1147.386,1851.848c-1.331,2.278-37.894,24.037-44.269,28.705-56.741,41.555-120.9,106.027-148.341,171.659-11.781,28.178-16.299,58.422-23.053,87.965l-65.091-52.018-.741-2.702c12.84-11.289,17.257-28.177,25.513-42.617,41.494-72.571,131.563-207.509,225.337-206.654,7.089.065,37.766,3.468,30.644,15.661ZM886.364,2089.587c2.935,3.488,26.717,22.267,31.538,25.441,2.015,1.327,5.104,4.482,6.902,1.214,13.562-104.688,93.13-189.176,175.161-248.841,5.4-3.928,15.924-8.837,19.723-12.276,2.565-2.322,3.278-3.981.08-5.975-1.999-1.246-24.425,2.583-28.467,3.587-66.214,16.448-128.884,100.563-164.385,155.615-6.816,10.569-42.848,69.11-42.679,76.561.039,1.699,1.043,3.386,2.126,4.674Z"/>
  </g>
</svg>