<?xml version="1.0" encoding="UTF-8"?>
<svg id="Layer_1" data-name="Layer 1" xmlns="http://www.w3.org/2000/svg" viewBox="0 0 78.433 1024">
  <path d="M72.326,0c-2.718,5.313-2.937,11.354-4,17-.116.617.128,1.397,0,2-.977,4.607-1.1,2.352-.962,8.546.183,8.158-8.47,9.585-6.198,18.829-3.276,1.664-2.871,5.487-6.112,6.889-4.323,1.871-10.273-3.185-11.729,5.736.661.041,1.335-.071,1.994-.005.098,1.659-.084,3.345.006,5.005h-2c.058-1.592-.236-3.552,0-5-2.901-.179-3.052.212-4,3-2.462-1.004.015-3.993,0-5,3.549.586,1.552-4.781,2.238-7.267,1.409-5.104,1.352-2.645,1.762-8.733.148-2.202.971-4.235,1.04-6.455.088-2.843-.922-8.54-.683-10.112.14-.917,1.937-1.63,2.643-2.433.306-.348.732-.643,1-1,3.438-4.58.817-6.889,1.479-8.051.149-.261,3.248-2.549,4.521-3.949,1.298-1.427,2.683-2.588,4-4,3.424.492,9.756-1.483,10-5h5ZM53.326,27c.048.804.985.931,1,1,.071.335-.092.718,0,1,.162.5-.113,1.365.012,1.998l.988-.998c.65.063,1.365-.094,2,0,3.505.521,2.572,3.602,4.992,4.998l-.562-4.026c3.701-1.028,3.56-3.691.218-5.28-1.214-.577-1.566.327-1.648.308-2.487-.585-3.703-.259-5.5-2.981-1.627,1.112-1.61,2.159-1.5,3.981Z" style="fill: #d8d064;"/>
  <path d="M18.326,977l3.991,1.984-2.054.643,1.97,9.962-1.896,1.398,1.762.169c-.278.508,1.228,5.364,1.398,5.644.454.748,4.186.922,4.769,2.761,1.055,2.784-1.952,2.351-1.983,3.004-.257,5.4,3.141,3.917,4.042,4.435,4.427,2.545,2.196,4.743,3.274,8.225.814,2.629,2.123,4.845,3.726,6.775.513.618,1.159.927,1,2h-20c-.984-4.898.94-10.698,1-15,8.221.282,7.331-6.806,0-7-.006-.606-1.321-2.312-1.004-3.45l-.996-17.55c.121-1.27.993-2.831,1-4Z" style="fill: #8d8c90;"/>
  <path d="M42.326,0l-3.994,3.511,3.975,2.987c-6.215,9.573,6.314,3.753,11.019,2.501-1.273,1.399-4.372,3.688-4.521,3.949-.662,1.162,1.959,3.471-1.479,8.051-2.097-6.599-11.54-.38-10.006-10.005l-5.994,2.005-9-3c-.114-.596-1.017-1.542-1-2,.063-1.747,2.886-5.333,2-8h19Z" style="fill: #daacb9;"/>
  <path d="M61.326,0l-.169,1.814c-3.797-.221-3.254,2.568-3.831,3.186-1.317,1.412-2.702,2.573-4,4-4.704,1.251-17.233,7.072-11.019-2.501l-3.975-2.987,3.994-3.511h19Z" style="fill: #65a3ce;"/>
  <path d="M17.326,0l-.999,8.99c3.282,1.022,2.441-5.878,4.999-.99-.017.458.886,1.404,1,2,.32,1.668.398,3.386,1,5-.162-.083-3.011-.888-3.493-.994-.564-.124-2.042-1.878-2.509.513-.573,2.932,3.111,6.604,3.478,9.321.552,4.079-.599,7.505.525,13.16-.991.069-2.008-.057-2.998.007l.884,2.527c-2.691.947-1.847,2.055-1.886,4.466h-1c.054-.659-.053-1.341,0-2,.387-4.782,2.125-9.496,2.078-13.499-.11-9.408-6.109-18.826-3.078-28.501h2Z" style="fill: #d3c769;"/>
  <path d="M19.326,1002c.021,2.153.028,4.989,0,7-.06,4.302-1.984,10.102-1,15h-2c.039-13.985-.053-28.015,0-42l1-1,.996,17.55c-.317,1.138.998,2.844,1.004,3.45Z" style="fill: #c7ba70;"/>
  <path d="M23.326,0c.886,2.667-1.937,6.253-2,8-2.558-4.887-1.718,2.012-4.999.99l.999-8.99h6Z" style="fill: #cdc094;"/>
  <path d="M67.326,0c-.244,3.517-6.576,5.492-10,5,.576-.618.033-3.407,3.831-3.186l.169-1.814h6Z" style="fill: #4393c7;"/>
  <path d="M68.326,19c6.285,1.777,6.219,12.583,7.01,17.995l1.99-.995c-.71,4.235-1.364,4.039-2,6-1.377-2.624-2.497.206-3.064,1.436-3.035,6.584-3.901,13.789-5.936,20.564-4.524,4.063-6.848,9.754-9.561,14.984-.569,1.097-2.335,1.807-2.439,2.016-.822-3.994-2.516-2.952-5.916-3.088-1.715-5.529-2.769-8.06-3.084-13.912-.089-1.66.092-3.346-.006-5.005-.66-.066-1.334.046-1.994.005,1.456-8.921,7.406-3.865,11.729-5.736,3.24-1.402,2.836-5.226,6.112-6.889-2.272-9.244,6.38-10.671,6.198-18.829-.139-6.193-.015-3.938.962-8.546Z" style="fill: #4393c7;"/>
  <path d="M34.326,376c.894,2.258,3.94,4.407,4.014,4.707,1.046,4.25-1.729,7.505,4.493,10.286,2.075-1.674-1.369-2.493-1.507-2.993h3c.301.649,1.448,1.408,2,2h1c-1.713,7.22,2.76,7.988,2.03,12.319-.072.427-4.973,4.582-5.915,6.327-.962,1.781-.732,2.773-1.115,4.355-1.561,6.445-.009,7.104.041,12.459.199,21.413-.188,47.562-8.041,67.541-.92.147-2.212-.217-3,0l.994-4.996-1.994-.004c.038-.66-.065-1.345,0-2,2.218,1.724,2.3.381,2.942-1.558,2.163-6.536,4.107-9.745,2.058-16.442-.228-.745-.995-1.5-1.041-2.413l2.087-1.145-1.1-2.886,1.836-.793c.338-.387-.798-.711-.782-.763.721-2.26,1.854-4.422,2.222-6.841l2.784-.168c-1.212-2.296-1.776-4.397-2.006-6.992-.318-3.587.229-7.394.005-11.006l-4.005.006c.175-1.95,1.899-3.255,2-4,.19-1.398-1.406-4.05-1.79-5.763-1.015-4.533-1.809-9.606-2.21-15.237,1.257-.52,3.176.944,4.928-1.574.636-.914,4.638-13.918,4.08-14.424-1.966,1.011-5.815-1.625-6.343-3.28-.806-2.523.599-4.078.371-6.208-.214-2.001-1.964-2.333-2.036-2.515-.754-1.902-1.374-4.236,0-6Z" style="fill: #d7bfa2;"/>
  <path d="M43.326,59c-.236,1.448.058,3.408,0,5-.109,2.971-.536,10.11.916,12.338.786,1.207,2.945,1.171,4.049,2.177,1.739,1.584,2.206,5.199,5.035,6.485-1.166.458-5.605,2.017-5.817,2.247-.648.704.023,2.403-.183,2.753-.054.092-1.77-.386-2.028.642-.87,3.46,2.492,4.882,5.028,6.358.56.326,1.009,1.143,2,1l-.031,1.324c-2.403,1.066-2.218,2.176-1.969,4.676-7.226,2.372-.362,4.822,1.548,6.952,4.949,5.518,1.09,9.197,1.478,14.432.155,2.093,1.914,4.206,1.885,6.14-.063,4.313-6.912,17.305-7.716,22.263-.548,3.38.503,8.579-.197,12.213-.142.739-.712,2.052-1,3-.375,1.236-2.255,3.025-2,5-1.078,1.201-1.937.058-2.061-1.517,1.497-4.423.502-9.298,1.061-13.483.36-2.699,1.402-5.373,2-8,.697-3.065,3.753-15.406,5-17,.199-.254,3.51.52,1.95-4.954l-4.898-1.617,4.546-9.501c-.384-2.118-5.412-4.534-6.09-5.919-1.24-2.533.192-2.88-2.508-6.01-1.691-1.96-4.851-5.194-6.991-6.015l-.008-.977c.571-.158,1.805.173,2-.009l4.047-1.661c-.96-6.088.389-8.251,3.883-12.704-3.638-2.729-10.4-13.52-8.93-17.635.435-1.218,1.25-2.794,2-5,.948-2.788,1.099-3.179,4-3Z" style="fill: #dbb6b5;"/>
  <path d="M35.326,796v3l-3.009.509,3.009,4.491c-.014.331.035.673,0,1-2.876,1.073-.997,1.85-1,2-.012.666-.007,1.334,0,2,.003.333-.009.667,0,1,.018.663-.048,1.341,0,2l-1.993.005-.013,1.485,2.005.51c.324,4.544,2.096,8.159,1.005,12.995,3.087.758,2.889-5.24,2.995-6.995h1l1,3c.009.666-.008,1.334,0,2-1.658,1.039-.996,3.793-1.017,5.486-.138,11.162.021,22.362.017,33.514,0,2.992,0,6.008,0,9v1c0,1.333,0,2.667,0,4v3h-1c.337-4.618-.841-8.556-1-12-.104-2.261,3.034-6.472-.99-8l-3.006,3.006c-.136-1.647.157-3.365-.004-5.006-.444-4.525-.809-6.659-2-11l-.005-3.002c1.285-.157,2.789.205,4.005.002,1.54-.257,3.087-.463,3.011-2.49-.043-1.154-2.318-.168-3.011-.51-.074-.037.117-1.07-.426-1.605-.447-.44-1.575-.434-1.527-.851.32-2.75,4.042-6.53-1.047-9.545.565-4.263-1.702-8.617-1.01-13-1.136.712-3.088,1.266-3.99,2l-4.998-.005c.853-1.569-.087-4.052-.002-4.995,6.052.274,8.748.14,5.366-5.898-1.003-1.791.029-2.706-3.366-2.102.051-1.047-.851-2.757-1-4l7.995.995-.094-6.316c1.353-2.136,3.838-.592,4.098-.679ZM31.316,809l-.485-2.995-1.485,1.495,1.97,1.5Z" style="fill: #dfd679;"/>
  <path d="M25.326,771l-.007,5.981,5.623,1.92c2.596.7,1.133-3.852,1.288-5.325l-.904-.575,2-1,2.009,16c1.716,1.095,2.962-2.663,2.991-3h1c.085,6.621.925,13.888,1,20,.012,1-.013,2,0,3-1.661,2.022-1.709,7.786,0,10,.01.666-.01,1.334,0,2h-2c.321-5.33-.852-9.506-1.047-14.453-.063-1.599,1.769-12.978-.929-11.535-.091.62-.5,1.812-1.024,1.988-.26.087-2.745-1.457-4.098.679l.094,6.316-7.995-.995c-.467-3.907-1.949-8.758-2-12-.055-3.518,2.887-8.203-1-10,.184-1.243-.236-2.838,0-4,.654-3.223,2.845-3.363,5-5Z" style="fill: #d9d476;"/>
  <path d="M43.326,159c-.559,4.185.436,9.06-1.061,13.483.123,1.575.982,2.718,2.061,1.517l1,2c-2.487,14.042-1.141,34.243-1,49-.963.106-2.086-.157-3,0l-.083-6.891-4.91-1.116c.577,1.721-.704,2.914-1.007,4.008-3.052-1.813-1.032-4.027-1-6l3.85-1.141c.871-4.216.394-5.389-3.85-5.859.035-1.328-.08-2.677,0-4,.099-1.645-.161-3.374,0-5l3.496,2.033,3.499-.038c-2.211-3.193.954-7.316.809-8.305-.099-.676-1.306-1.486-1.437-2.375-.333-2.263,1.215-4.773-2.367-6.314.629-4.155-.179-10.234,1.06-15.432,1.127-4.726,2.273-2.022,1.94-9.568h2Z" style="fill: #d1cb83;"/>
  <path d="M33.326,595c-.264-1.285-.021-3.241-1-4,3.781-14.271-.934-27.021-.095-40.512.137-2.21,1.788-3.352,2.046-5.038.428-2.795,1.218-15.086-1.951-14.45v-33c.679-1.041,1.468-3.645,2-5,7.853-19.98,8.24-46.128,8.041-67.541-.05-5.355-1.601-6.014-.041-12.459,4.312,22.082,1.46,43.339-2.293,65.207-2.528,14.729-6.998,25.44-5.691,41.277.631,7.652,4.586,16.048,2.781,23.812-.698,3.002-3.118,3.381-2.907,8.23.138,3.181,2.059,4.568,2.205,6.961.452,7.363-3.172,16.748.866,24.961l-3.961,11.551Z" style="fill: #c7ba70;"/>
  <path d="M38.326,341c.696,1.031,4.456,4.565,5.506,4.995l1.494-2.995c.586,2.579,2.039,5.534,3,8l-5.006,1.511,5.006-.511c1.222,3.03,4.738,8.053,6.04,11.459,3.288,8.604.196,10.769-3.744,18.373-.933,1.8.375,2.772-3.296,2.168-.102-1.299.174-2.754,0-4,1.923.67,4.021-3.448,4.047-4.477.013-.493-1.46-.322-1.968-1.29-1.138-2.168.842-3.834-4.162-4.814,3.223-10.621-.534-7.988-3.79-13.021-1.851-2.861.52-3.67-3.127-4.399l1.087-6.572-2.129-2.014,1.042-2.414ZM41.826,351v1c.649-.333.649-.667,0-1ZM51.321,366.005h-3.99v1.99h3.99v-1.99ZM53.32,370.995l-.49-2.99-1.495,1.51-.005,1.48h1.99Z" style="fill: #d8d064;"/>
  <path d="M38.326,730h-1c-.192-1.591-.96-2.693-1-3-.043-.327.058-.679,0-1s.047-.673,0-1c-.091-.64.123-1.41,0-2-.099-.474-.528-.862-1-1-1.452-7.364-1.378-13.794-2-21,3.003-12.556-1.202-25.332-.005-38.005-.655.033-1.341-.057-1.995.005,1.003-7.772-.406-18.616,1-27,.938-5.593.882-9.253,1-15v-4c.009-.333-.014-.667,0-1h1c.186,5.961,1.162,11.489,1.039,17.543-.137,6.749-2.402,15.253-2.086,21.981,1.146,24.43,1.73,50.1,5.047,74.476Z" style="fill: #c7ba70;"/>
  <path d="M50.326,104c.027.268,1.957,3.058,1.009,5.007l1.991-1.007c6.101,6.369,1.883,11.34,3.057,18.45.743,4.497,5.464,6.16,3.349,12.691-1.362,4.205-9.39,5.299-10.404,15.352-.382,3.791,2.606,11.307-2.003,11.507.7-3.634-.351-8.834.197-12.213.803-4.958,7.653-17.95,7.716-22.263.028-1.933-1.73-4.046-1.885-6.14-.389-5.235,3.47-8.914-1.478-14.432-1.91-2.13-8.774-4.579-1.548-6.952Z" style="fill: #dcd285;"/>
  <path d="M37.326,315c.795,3.58,3.502,2.45,5,5-.066.653.025,1.34,0,2-3.722-.352-1.543,1.303-1,3,1.679,5.249,2.402,2.776,3,9l-.995,1.49.995.51c.081.644-.095,1.364,0,2-2.919-1.727-4.743-.307-7,0-.277.038-1.338-1.199-1.837-.843-.263.188-.474,1.523-1.214,2.225-.623.591-1.851.483-1.95.618-2.574.791-1.826-1.857-2-2,3.591-1.331,1.818-5.362,2.318-6.793.238-.682,3.319-1.211,3.682-4.207l3.016-.511c-1.155-3-3.034-5.634-6.009-6.978.846-2.095,2.81-2.828,3.993-4.511Z" style="fill: #dcd285;"/>
  <path d="M43.326,296c-1.601,1.237-2.152,3.003-2,5-1.33-9.37,2.476-24.576,1.999-35.517-.107-2.456.718-3.266-1.999-1.483-.268-4.217-5.473-11.326.982-13.016l-.034-1.954-1.87-.466c.577-1.059,1.046-2.352.922-3.564h2l.992,1.992-.992-1.992c-.12-2.315.173-4.693,0-7l1-1c.256,19.83-1.186,39.692-1,59Z" style="fill: #c7ba70;"/>
  <path d="M75.326,42c-.217.67-2.637,12.925-2.681,13.628-.169,2.71,1.474,4.855.24,8.437-.943,2.736-3.366,2.643-5.559,4.935l-1.995-.007c.493-1.555.562-3.551.995-4.993,2.035-6.775,2.901-13.979,5.936-20.564.567-1.23,1.687-4.061,3.064-1.436Z" style="fill: #dcd285;"/>
  <path d="M66.326,64c-.433,1.442-.501,3.438-.995,4.993l1.995.007c-5.862,6.125-3.476,15.762-13,14-.023-.552-.129-1.739,0-2,.103-.209,1.87-.919,2.439-2.016,2.713-5.23,5.037-10.921,9.561-14.984Z" style="fill: #d1cb83;"/>
  <path d="M42.326,320c-1.498-2.55-4.205-1.42-5-5,.742-1.056,2.851-3.535,2.975-3.78.489-.968,1.993-6.164,2.025-7.22.034-1.156-.891-2.229-1-3-.152-1.997.399-3.763,2-5,.095,9.856-.012,14.159-1,24Z" style="fill: #c6b453;"/>
  <path d="M77.326,36l-1.99.995c-.791-5.412-.725-16.219-7.01-17.995.128-.603-.116-1.383,0-2,6.773-1.136,10.109,10.49,10.108,15.576,0,2.004-1,2.78-1.108,3.424Z" style="fill: #d1cb83;"/>
  <path d="M40.326,919c-.008,6.967.232,14.043,0,21-.037,1.099.299,2.52-1,3,0-20.651-.003-41.349,0-62v-3c1.658,1.039.996,3.794,1.017,5.486.147,11.827-.004,23.697-.017,35.514Z" style="fill: #c6b453;"/>
  <path d="M54.326,85l1.993.005-.078,1.941c-4.323.575,1.481,2.383-.915,8.054l-.51-.995c-.697-.123-2.125.578-2.49.995l-.048-2.94c-1.902-.123-4.362.196-4.952-2.06.206-.35-.465-2.049.183-2.753.211-.229,4.651-1.789,5.817-2.247.047-.018.621.528,1,0Z" style="fill: #d3c769;"/>
  <path d="M33.326,595c.431,2.099,1.311,7.769,2,9-1.413,3.016-1.563,5.783-2,9-2.071-.769-2.163-3.233-3-5,3.138-2.423.961-3.835,1-6,.029-1.607-.05-3.993,0-5,.149-3,.319-3.43,1-6,.979.759.736,2.715,1,4Z" style="fill: #d7bfa2;"/>
  <path d="M40.326,805c-.075-6.112-.915-13.379-1-20-.15-11.641-.047-23.357,0-35,.001-.333-.002-.667,0-1l1,56Z" style="fill: #c6b453;"/>
  <path d="M44.326,338c.189,1.267.698,3.671,1,5l-1.494,2.995c-1.05-.43-4.81-3.964-5.506-4.995-.244-.362-.071-1.6-1-2v-1c2.257-.307,4.081-1.727,7,0Z" style="fill: #d7bfa2;"/>
  <path d="M34.326,616h-1c.014-.333-.023-.669,0-1s-.033-.671,0-1-.044-.674,0-1c.437-3.217.587-5.984,2-9,.189.338,1.977.844,2.488,1.97,1.825,4.016-.131,7.741-3.488,10.03Z" style="fill: #dcd285;"/>
  <path d="M39.326,864c.003-11.152-.156-22.353-.017-33.514.021-1.692-.641-4.447,1.017-5.486.142,11.138.135,22.364.017,33.514-.018,1.691.639,4.447-1.017,5.486Z" style="fill: #c6b453;"/>
  <path d="M40.326,739c-1.687,1.09-.964,4.11-1,6-.025,1.332.008,2.667,0,4-.002.333.001.667,0,1h-1c.033-.803-.856-1.519-1-2-1.663-5.543.721-3.512.994-4.66.427-1.798-.671-10.662-.994-13.34h1c.343,2.524,1.754,6.54,2,9Z" style="fill: #d3c769;"/>
  <path d="M44.326,388c-.884-1.908-.482-4.738-1.978-6.511l2.974.516.009-5c2.399-.701,1.762,1.332,1.995,2.995.174,1.246-.102,2.701,0,4,.026.331-.026.669,0,1l-1.998.009.998,4.991c-.552-.592-1.699-1.351-2-2Z" style="fill: #c6b453;"/>
  <path d="M45.326,64c.315,5.852,1.368,8.383,3.084,13.912,3.4.135,5.094-.907,5.916,3.088-.129.261-.023,1.448,0,2,.028.665-.019,1.335,0,2-.379.528-.953-.018-1,0-2.828-1.287-3.296-4.901-5.035-6.485-1.104-1.006-3.263-.97-4.049-2.177-1.452-2.228-1.025-9.367-.916-12.338h2Z" style="fill: #dfd679;"/>
  <path d="M53.326,108l-1.991,1.007c.948-1.949-.982-4.738-1.009-5.007-.249-2.501-.434-3.61,1.969-4.676l.031-1.324h1c-1.132,3.341.024,6.65,0,10Z" style="fill: #d3c769;"/>
  <path d="M44.326,225c.016,1.666-.013,3.334,0,5l-1,3c-.019-.164-.791-1.139-1-2-.775-3.196.456-1.937-2-5,.121-.477.527-.919,1-1,.914-.157,2.037.106,3,0Z" style="fill: #dfd679;"/>
  <path d="M47.326,385c.194,2.426.961.95,0,5h-1l-.998-4.991,1.998-.009Z" style="fill: #d8cf56;"/>
  <path d="M55.326,95c-.518,1.226-1.865,2.6-2,3h-1c-.991.143-1.44-.674-2-1,2.733.729,1.722-1.683,2-2,.365-.417,1.793-1.118,2.49-.995l.51.995Z" style="fill: #dcd285;"/>
  <path d="M40.326,818c-1.709-2.214-1.661-7.978,0-10,.043,3.325-.049,6.676,0,10Z" style="fill: #c6b453;"/>
  <path d="M45.326,176l-1-2c-.255-1.975,1.625-3.764,2-5,.868,2.743-.672,5.146-1,7Z" style="fill: #dcd285;"/>
  <path d="M44.326,233v1c.011,1-.013,2.001,0,3l-1,1c-.123-1.636.185-3.387,0-5l1-3c.008,1-.005,2,0,3Z" style="fill: #d1cb83;"/>
  <path d="M42.326,322c-.042,1.101.303,2.51-1,3-.543-1.697-2.722-3.352,1-3Z" style="fill: #c6b453;"/>
  <path d="M39.326,745c.036-1.89-.687-4.91,1-6,.174,1.741.522,5.036-1,6Z" style="fill: #c6b453;"/>
  <path d="M48.326,351c.113.29-.116.714,0,1l-5.006.511,5.006-1.511Z" style="fill: #d8cf56;"/>
  <path d="M40.326,823l-1-3h1c.015,1-.014,2,0,3Z" style="fill: #c6b453;"/>
  <path d="M44.326,336l-.995-.51.995-1.49c.063.654-.082,1.351,0,2Z" style="fill: #d7bfa2;"/>
  <path d="M39.326,874v-1c0,.333,0,.667,0,1Z" style="fill: #c6b453;"/>
  <path d="M13.326,702v11c-.382,5.753.806,11.344,1,17,.27,7.848.816,16.428,1,24,.049,2.022-.308,3.593-1.055,5.448l1.962.975c-1.454,3.022-.922,6.384-.906,9.576.047,9.681.852,19.528,1,29,.488,31.309.871,62.713,1,94,.038,9.317.04,18.683,0,28-.037,8.643-.921,17.847-1,26-1.466-42.143-1.147-84.368-1.959-126.541-.588-30.566-1.104-61.348-2-92-.223-7.646-1.313-14.895-1.041-23.004.065-1.928-1.019-4.013,2-3.455Z" style="fill: #d3c769;"/>
  <path d="M18.326,307c.504,2.931,1.108,6.145,2,9-1.463.845-1.634,9.487-1.997,12.006l1.997-.006c-.347,5.954-.873,14.448,7,15-.276.616-.08,1.576-1,2-.749-.36-2.888-.037-3.973-1.006l-4.027,11.006c-1.977-.187-2.78,1.24-4,2-.274.171-1.538-.346-1.917.123.466.905-.124,2.498-.083,2.877-3.533-2.608-5.227-7.07-7-11,3.552-2.066,2.505-7.508,3.005-10.995,3.095-.307,3.147,2.705,3,5.002l6.99-2.002-.991,4.989c5.742-.041,1.765-9.747-2.424-9.067l-2.573,3.071-1.001-3.008,3.999-.994-1.249-5.821-2.757-.179,3.855-12.629-1.855-6.367c.085-.64-.05-1.345,0-2,.101-1.32-.068-2.675,0-4l1.496-1.996,3.504,3.996Z" style="fill: #d8cf56;"/>
  <path d="M14.326,145c-1.965,6.302.243,15.746,1,22,.059.488-.23,3.084,0,5,.344,2.87,1.752,4.576,1.993,6.597.508,4.275-2.124,12.824,2.007,15.403-.206,4.144-6.923,6.437-.008,9.014l-1.992,2.986-3,1c-.279-5.987,1.417-13.128-3-18-.524-2.406-2.064-9.572-3.028-11.214-1.78-3.033-11.243-4.596-3.972-11.786.282,1.169,4.432,11.202,4.963,11.537,1.031.651,1.914.515,3.033.457-.161-1.824-1.295-3.139-1.995-4.995.065-5.32-.09-10.681,0-16,.092-5.421.688-9.029,0-15l1.503-.977,2.497,3.977Z" style="fill: #dcd285;"/>
  <path d="M21.326,426c-.059,3.204.909,9.367,1,14,.209,10.584,1.018,18,0,29-1.101.676-6.574,2.91-6.84,3.177-.537.539-.011,1.432-.16,1.823-1.434-.434-1.985-1.541-2-3,.073-.317-.078-.687,0-1,2.629-10.514,3.973-14.433,4-26l3.787-11.666c-.677-2.358-1.483-3.735-1.787-6.334h2Z" style="fill: #e5bdb6;"/>
  <path d="M13.326,311l1.855,6.367-3.855,12.629,2.757.179,1.249,5.821-3.999.994,1.001,3.008,2.573-3.071c4.189-.68,8.165,9.026,2.424,9.067l.991-4.989-6.99,2.002c.147-2.297.095-5.309-3-5.002-.5,3.487.547,8.93-3.005,10.995-.196-.434-1.317-.981-1.59-1.919-1.21-4.157,1.305-4.564,2.335-7.836,1.678-5.331.864-7.487,1.439-11.539.12-.846,2.892-6.181,3.816-9.706.56-2.137,1.708-4.818,2-7Z" style="fill: #c6b453;"/>
  <path d="M10.326,142c.688,5.971.092,9.579,0,15-3.738,5.016-1.948,10.836,0,16,.7,1.856,1.834,3.171,1.995,4.995-1.118.057-2.001.194-3.033-.457-.531-.335-4.681-10.368-4.963-11.537-.2-.832.145-2.066,0-3-1.493-9.611,2.856-8.838,3.688-14.659.319-2.231-1.21-6.927-1.688-9.341-1.124-5.677-2.999-3.94,0-10,.511-1.033,1.605-2.09,2-3-1.453,5.686,1.461,11.322,2,16Z" style="fill: #dbb6b5;"/>
  <path d="M22.326,469c-.188,2.032-.916,3.989-1,6-1.343,1.143-.856,2.566-1,4-.097.965.173,2.133,0,3-1.005,5.049-2.032,7.066-2,13l-3.99-3.995c.092,5.842-.147,11.722-.051,17.574.021,1.291,1.04,2.289,1.041,2.421.015,2.329.008,4.67,0,7-3.029.557-1.924-1.528-2-3.455-.394-9.977.123-20.067.018-30.06-.018-1.691.639-4.448-1.017-5.486.041-.994-.074-2.01,0-3l3.002-.002c.146-.621-.175-1.544-.002-1.998.149-.39-.378-1.284.16-1.823.266-.267,5.74-2.502,6.84-3.177Z" style="fill: #dcd285;"/>
  <path d="M20.326,674c-1.15,7.696-.259,14.815-2.229,22.264-.745,2.818-2.288,1.348-1.771,5.736.236,1.999,1.051,4.133,1,6-.003.112-.776,1.169-1,2-.214.793.196,2.065-.005,2.995l-2.995.005v-11c-.728-2.455-.079-5.338,0-8,.163-5.521,1.981-13.486,2-19l4-1h1Z" style="fill: #dbb6b5;"/>
  <path d="M14.326,207c.136,2.925.987,7.022,1,9,.007,1-.004,2,0,3,.01,2.757-1.176,7.363-1,11.545.081,1.924-1.033,4.013,2,3.455-.152.14-.349,2.651-1,4-3.031,6.285-3.572,13.011-3.058,20.554.127,1.86-.241,3.743,2.058,4.446-.143.25.141.742,0,1-.198.363-1.878.461-1.945,2.405-.059,1.709,1.607,7.528,1.945,10.595.107.968-.134,2.051,0,3l-1,1c-1.337-11.252-3.675-19.627-2.99-31.49,1.238-21.416,5.836-38.273.99-60.51,4.417,4.872,2.721,12.013,3,18Z" style="fill: #cbc360;"/>
  <path d="M19.326,401c-2.217,2.855-10.024,10.014-1,11,.007,3.988.5,9.73,1,14,.304,2.599,1.11,3.976,1.787,6.334l-3.787,11.666c.011-4.64-.813-10.353-1.041-15.459-.176-3.951.205-7.958.082-11.911-.223-1.17-1.885-.471-2.042-.63-.938-.952-2.186-2.816-3-4-.773-3.484,2.52-9.81,5-12,.132-.116,2.175-.604,3-1,.078.642-.115,1.391,0,2Z" style="fill: #dbb6b5;"/>
  <path d="M6.326,139c.478,2.414,2.007,7.11,1.688,9.341-.832,5.822-5.181,5.048-3.688,14.659-2.251-.174-3.547-1.272-3.976-3.528-.976-5.123.336-14.896.976-20.472h5Z" style="fill: #cbc360;"/>
  <path d="M14.326,632c-.425,2.702-.841,6.27-1,9-.153,2.626-.026,5.364,0,8,.007.666-.02,1.335,0,2,.241,7.998,2.027,16.116,2,24-.019,5.514-1.837,13.479-2,19-2.533-2.555-.169-6.628-.01-9.51.992-17.958-4.055-33.937-.99-52.49h2Z" style="fill: #d9d476;"/>
  <path d="M16.326,74c.064.092.988,1.889,1,2,.084.778-.698,5.209-1,6-3.956,10.359-4.435,14.239-6,25-.093.638.078,1.354,0,2-.155,1.274.192,2.762,0,4-.44,2.831-3.409,8.369-4,11h-1c2.162-7.168,1.197-12.591,2.24-19.26,1.105-7.063,4.495-16.111,5.76-23.74l1.997-.01-.997-1.99c.278-1.833-.21-4.093,0-6,.496.371,1.754.646,2,1Z" style="fill: #cbc360;"/>
  <path d="M20.326,58c.085.328,1.787.817,1.992,1.767.279,1.292-.619,5.615-.992,7.233-.913,3.959-.108,6.783-5,7-.246-.354-1.504-.629-2-1,.036-.329-.033-.67,0-1,.438-4.359.645-8.684,1-13l5-1Z" style="fill: #d7bfa2;"/>
  <path d="M14.326,416c.157.159,1.819-.54,2.042.63.123,3.953-.258,7.96-.082,11.911.228,5.106,1.051,10.819,1.041,15.459-.027,11.567-1.371,15.486-4,26,1.906-17.895,3.287-36.068,1-54Z" style="fill: #cbc360;"/>
  <path d="M20.326,925c.668,1.52,1.366,6.175,2,7-2.155.641-1.834,2.193-2,4-.397,4.32-1.762,9.128-2,12h-2c.003-.333-.003-.667,0-1,.079-8.153.963-17.357,1-26,.809,1.066,2.534,2.939,3,4Z" style="fill: #dbb6b5;"/>
  <path d="M16.326,384c-.282,4.962.471,10.89,0,16-2.48,2.19-5.773,8.516-5,12-.198-.287-1.478-.416-1.839-1.667-1.163-4.04,1.909-5.945,2.618-9.053,1.107-4.848,1.87-12.208,2.22-17.28h2Z" style="fill: #c6b453;"/>
  <path d="M16.326,559c-1.987,10.993-3.074,22.998-2.04,34.54.479,5.348,3.365,8.118,3.981,12.019,1.614,10.203-2.453,16.988-3.941,26.44h-2c1.871-11.326,7.169-16.685,3.762-29.262-.887-3.274-3.312-5.335-3.786-9.214-1.312-10.748.862-23.663,1.024-34.524h3Z" style="fill: #cbc360;"/>
  <path d="M14.326,280c.448,3.158.497,8.008,1.039,10.279.153.643,1.309.704,1.577,1.143,1.358,2.223-1.029,2.523,3.385,2.578.11.622-.116,1.384,0,2,.145.769.733,1.957,1,3l-4.995-1.995,2.989,3.005-2.067,1.612c-.152,1.89.766,3.595,1.073,5.378l-3.504-3.996-1.496,1.996h-1c1.033-7.015,2.443-11.48,2-19l-1-4c-.036-.33.039-.671,0-1l1-1Z" style="fill: #c7ba70;"/>
  <path d="M18.326,948c-.749,9.035.056,19.726,0,29-.007,1.169-.879,2.73-1,4l-1,1c.043-11.317-.113-22.684,0-34h2Z" style="fill: #cbc360;"/>
  <path d="M12.326,479c1.656,1.038,1,3.795,1.017,5.486.105,9.993-.412,20.083-.018,30.06.076,1.927-1.028,4.012,2,3.455-.011,2.99-.955,6.371-1,10-.107-.205-1.21-.362-1.505-.99-1.35-2.869-.76-41.632-.495-48.01Z" style="fill: #c6b453;"/>
  <path d="M17.326,44c-.021,1.331.001,2.673.01,4l4.99-2c-1.231,5.588-3.813,5.008-2,12l-5,1c.194-2.354-.109-5.462,0-7,.024-.332-.023-.668,0-1,.108-1.549.794-4.505,1-7h1Z" style="fill: #d1cb83;"/>
  <path d="M6.326,124c-.312,1.388.216,3.466,0,5-2.999,6.06-1.124,4.323,0,10H1.326c.074-.648-.09-1.361,0-2l.995-1.49-.995-.51c.823-5.02,2.843-7.163,4-11h1Z" style="fill: #dfd679;"/>
  <path d="M14.326,366l4,2c-.199,5.175-1.702,10.769-2,16h-2c.091-1.321-.049-2.673,0-4,1.654-1.264,1.654-5.736,0-7-.035-.997.057-2.006,0-3l.995-1.49-.995-.51c-.045-.66.059-1.343,0-2Z" style="fill: #dfd679;"/>
  <path d="M16.326,535c.472.63-1.204,1.666,2,2l-1.896,1.139c-.521,1.094.902,2.368.896,2.861-.052,4.725-1.953,6.933-2,10h-1c.072-1.994-.07-4.006,0-6v-1c.119-3.317-.06-6.679,0-10h1c.175.477.772.695,1,1Z" style="fill: #d3c769;"/>
  <path d="M15.326,59c-.355,4.316-.562,8.641-1,13-1.396-5.47-2.473-15.327,1-20-.109,1.538.194,4.646,0,7Z" style="fill: #c6b453;"/>
  <path d="M14.326,357l1,4h1l.024,1.333c2.148.512,2.06,3.494,1.976,5.667l-4-2c-.094-1.041-1.832-4.438-2-6-.041-.38.549-1.972.083-2.877.379-.469,1.643.048,1.917-.123Z" style="fill: #c6b453;"/>
  <path d="M13.326,309c-.05.655.085,1.36,0,2-.292,2.182-1.44,4.863-2,7,.181-2.957-.26-6.066,0-9h2Z" style="fill: #c7ba70;"/>
  <path d="M15.326,474c-.173.454.148,1.378.002,1.998l-3.002.002c.193-2.593.542-3.016,1-5,.015,1.459.566,2.566,2,3Z" style="fill: #c6b453;"/>
  <path d="M16.326,555c.042,1.19.19,2.946,0,4h-3l1-4h2Z" style="fill: #d3c769;"/>
  <path d="M15.326,551c-.018,1.152.957,2.779,1,4h-2c-2.288-1.68-.017-3.523,0-4h1Z" style="fill: #cbc360;"/>
  <path d="M16.326,44c-.206,2.495-.892,5.451-1,7,.382-2.821-1.076-6.954,1-9-.053.659.054,1.341,0,2Z" style="fill: #c6b453;"/>
  <path d="M14.326,380c.086-2.303.081-4.696,0-7,1.654,1.264,1.654,5.736,0,7Z" style="fill: #c6b453;"/>
  <path d="M15.326,534h-1c.036-1.998-.025-4.002,0-6,1.154,2.2,1.326,3.31,1,6Z" style="fill: #d9d476;"/>
  <path d="M13.326,309h-2c.068-.762.785-2.539,1-4h1c-.068,1.325.101,2.68,0,4Z" style="fill: #c6b453;"/>
  <path d="M14.326,286c-.012-.206-.804-2.202-1-4l1,4Z" style="fill: #cbc360;"/>
  <path d="M14.326,79l.997,1.99-1.997.01c.213-1.287.983-1.889,1-2Z" style="fill: #c6b453;"/>
  <path d="M14.326,370c-.038-.663.045-1.339,0-2l.995.51-.995,1.49Z" style="fill: #c6b453;"/>
  <path d="M1.326,137c.09-.639-.103-1.37,0-2l.995.51-.995,1.49Z" style="fill: #cbc360;"/>
  <path d="M14.326,545c.008-.229-.016-.564,0-1v1Z" style="fill: #c6b453;"/>
  <path d="M31.326,13l5.994-2.005c-1.535,9.625,7.909,3.407,10.006,10.005-.268.357-.694.652-1,1-1.809-.848-5.122,1.059-6,1-.664-.044-2.658-2.285-4-2-.182-1.031-.424-2.111-1-3-.533-.823-1.022-1.055-2-1-.342-.267-.751-.651-1-1l-1-1c-.131-.574.088-1.36,0-2Z" style="fill: #d9d476;"/>
  <path d="M46.326,22c-.706.804-2.504,1.516-2.643,2.433-.239,1.572.771,7.269.683,10.112-.068,2.22-.891,4.252-1.04,6.455h-2c.151-6.138.003-3.78-2-6-.145-.161.058-1.402,0-2-.324-3.346-.021-6.79,1-10,.878.059,4.191-1.848,6-1Z" style="fill: #e5bdb6;"/>
  <path d="M43.326,41c-.41,6.088-.353,3.629-1.762,8.733-.686,2.486,1.311,7.853-2.238,7.267-.019-1.298-1.943-2.746-2-3-.539-2.41-.245-3.727,0-6,3.455-.07,3.633-2.346,4-5,.087-.629-.016-1.348,0-2h2Z" style="fill: #dbb6b5;"/>
  <path d="M37.326,54c.057.254,1.981,1.702,2,3,.015,1.007-2.462,3.996,0,5-.75,2.206-1.565,3.782-2,5-.643-.077-1.389.114-2,0,.201-3.599-.992-8.457-.006-12.339l2.006-.661Z" style="fill: #d9d476;"/>
  <path d="M60.326,26l.002,4.005-3.002-.005c-.635-.094-1.35.063-2,0l-1-1c-.092-.282.071-.665,0-1l-1-1c-.109-1.822-.126-2.869,1.5-3.981,1.796,2.722,3.013,2.396,5.5,2.981Z" style="fill: #65a3ce;"/>
  <path d="M60.326,26c.082.019.433-.885,1.648-.308,3.342,1.589,3.483,4.252-.218,5.28l.562,4.026c-2.42-1.396-1.487-4.477-4.992-4.998l3.002.005-.002-4.005Z" style="fill: #e5bdb6;"/>
  <path d="M55.326,30l-.988.998c-.124-.633.15-1.497-.012-1.998l1,1Z" style="fill: #e5bdb6;"/>
  <path d="M54.326,28c-.015-.069-.952-.196-1-1l1,1Z" style="fill: #e5bdb6;"/>
  <path d="M38.326,963c-.002.667.002,1.333,0,2-1.686.539-2.684,1.944-1,3-.008,3.239,1,8.272,1,11.5v20c0,5.254-.423,8.456,0,14.5.204,2.91.803,5.064-1,8-1.602-1.93-2.912-4.147-3.726-6.775-1.078-3.482,1.153-5.68-3.274-8.225-1.002-3.786,3.007-4.86,3.569-6.892,1.208-4.372,2.872-14.675-.569-18.108.881-6.23.798-13.606,1-20l4,1Z" style="fill: #daacb9;"/>
  <path d="M39.326,943v71h-1c-.423-6.044,0-9.246,0-14.5v-20c0-3.228-1.008-8.261-1-11.5,0-.158.993-.669,1-3,.002-.667-.002-1.333,0-2,.031-11.627-.072-23.913,0-36,.051-8.572.79-19.234.023-27.521-.164-1.768-.334-3.442-2.023-4.479.137-3.076.819-5.598,1-8,.05-.66-.056-1.341,0-2,.028-.331-.031-.67,0-1,.062-.662.914-1.814,1-3h1c-.003,20.651,0,41.349,0,62Z" style="fill: #dcd285;"/>
  <path d="M20.326,936c2.945,1.881.799,5.763,2.087,9.239.322.869,1.956.834,1.969,1.309.044,1.678-2.144,3.206-2.111,4.927.01.553,1.868.018,2.139,1.953.726,5.189-1.988,6.889-2.178,10.059-.149,2.478,1.494,5.236,1.048,7.899,4.709.29,4.363,5.994.049,6.634v.96c5.851,1.456-1.042,9.303,7.489,11.039,2.716.45,1.2-4.277,1.587-6.429.146-.812.893-1.386.922-1.59,3.441,3.433,1.777,13.736.569,18.108-.562,2.033-4.571,3.106-3.569,6.892-.901-.518-4.299.965-4.042-4.435.031-.653,3.038-.22,1.983-3.004-.583-1.839-4.315-2.013-4.769-2.761-.17-.28-1.676-5.136-1.398-5.644l-1.762-.169,1.896-1.398-1.97-9.962,2.054-.643-3.991-1.984c.056-9.274-.749-19.965,0-29,.238-2.872,1.603-7.68,2-12ZM21.826,948v1c.649-.333.649-.667,0-1Z" style="fill: #9a9898;"/>
  <path d="M19.326,1002c7.331.194,8.221,7.282,0,7,.028-2.011.021-4.847,0-7Z" style="fill: #cdc094;"/>
  <path d="M31.326,13c.088.64-.131,1.426,0,2,.093.406.777.688,1,1,.249.349.658.733,1,1,.622.487.992,1.097,2,1,.576.889.818,1.969,1,3l-3.991,4.007,1.987-.497c.878,2.874-.383,9.258,5.004,8.49.058.598-.145,1.839,0,2-6.058,1.494-3.61,7.187-4,12l-8.703,5.89-3.809-1.858c-.634-4.196,3.814-5.635,3.519-9.033l3.97,1.007,1.088-3.389c-4.311-1.723-2.525-5.198-1.809-9.13.1-.55,1.424-.275,1.547-.957.131-.726-1.057-3.416.049-4.965l-5.854-3.565c-.002-1.415.151-2.834.003-4.246-.156-.615-1.418-1.453-2.003-1.754-.602-1.614-.68-3.332-1-5l9,3Z" style="fill: #a2a2a1;"/>
  <path d="M23.326,15c.585.301,1.847,1.139,2.003,1.754.148,1.413-.004,2.831-.003,4.246.003,2.894-.649,4.988-.804,7.502-.252,4.08,3.304,8.049-3.196,8.498-1.124-5.655.027-9.081-.525-13.16-.367-2.717-4.051-6.389-3.478-9.321.467-2.391,1.945-.637,2.509-.513.482.106,3.332.911,3.493.994Z" style="fill: #dbb6b5;"/>
  <path d="M21.326,37c.897,4.511,2.045,4.255,1,9l-4.99,2c-.009-1.327-.031-2.669-.01-4,.038-2.411-.806-3.519,1.886-4.466l-.884-2.527c.99-.064,2.007.062,2.998-.007Z" style="fill: #d7bfa2;"/>
  <path d="M22.326,440c2.454.67,2.074-2.335,3.62-2.847,1.824-.604,4.394-.008,6.372-.144-.912,3.107,1.613,6.332,1.777,8.669.142,2.04-4.154,5.785.232,5.323-.133.315-.023,1.436,0,2l-5.995,2.01,4.995,1.99c-.089.307.082.688,0,1-.579,2.217-.233,3.887-1.204,5.808-13.175,2.468-1.505,3.451-.939,4.343l1.143,4.849c-1.586,4.222-1.564,8.644-2,13-.065.655.038,1.34,0,2-.093,1.6-1.79,3.443,0,5-.218.122-2.914,3.765-3,4l-4.982-.481c.811-2.081,1.895-6.868,1.658-8.845-.04-.336-1.805-6.733-3.676-5.674.173-.867-.097-2.035,0-3,3.877-1.584.989-3.729,1-4,.084-2.011.812-3.968,1-6,1.018-11,.209-18.416,0-29Z" style="fill: #d0d0d0;"/>
  <path d="M37.326,338v1c.507,2.682-3.844,2.734-3.632,5.489.094,1.221,2.977,4.658,1.629,7.519.958.126,2.123-.184,3.002-.008,3.648.729,1.277,1.538,3.127,4.399,3.256,5.033,7.013,2.399,3.79,13.021,5.004.98,3.024,2.646,4.162,4.814.508.968,1.981.797,1.968,1.29-.026,1.029-2.124,5.147-4.047,4.477-.232-1.663.404-3.696-1.995-2.995l-.009,5-2.974-.516c1.497,1.773,1.095,4.603,1.978,6.511h-3c-.427-1.554.436-4.472,0-6l1.994-5.996-3.994.996c-1.285-4.497-3.24-12.157-5-16-1.398-3.052-4.346-5.156-4-8,.195-1.602,3.623-4.908,0-6,.537-2.06.478-4.927,2-7,.099-.135,1.326-.026,1.95-.618.74-.702.95-2.038,1.214-2.225.499-.356,1.56.881,1.837.843Z" style="fill: #d8cf56;"/>
  <path d="M22.326,412c4.075.319,3.027,6.934,8.007,6.01-2.905,4.82,2.183,4.614,3.663,7.298,1.055,1.912-.12,6.243,3.329,5.693-.101.745-1.825,2.05-2,4-.282,3.139,1.223,7.003,1,11-.254,4.562-1.383,3.535-2,5-4.386.463-.09-3.282-.232-5.323-.163-2.337-2.689-5.562-1.777-8.669-1.977.137-4.548-.46-6.372.144-1.546.512-1.166,3.517-3.62,2.847-.091-4.633-1.059-10.796-1-14,.079-4.294,1.588-8.876,1-14Z" style="fill: #c5c5c3;"/>
  <path d="M34.326,382c.072.181,1.823.513,2.036,2.515.227,2.13-1.177,3.684-.371,6.208.528,1.655,4.377,4.291,6.343,3.28.558.506-3.444,13.51-4.08,14.424-1.752,2.517-3.672,1.053-4.928,1.574-.047-.659.067-1.345,0-2,5.557-1.504,3.558-7.7,1-11,3.12-4.553.124-3.364-1-4-.567-.321-1.025-1.132-1.97-1.067,2.025-3.686-1.531-8.19,2.97-9.933Z" style="fill: #d3c769;"/>
  <path d="M22.326,411c1.836-.167,4.519-1.839,7.008-.992l-.49,1.997c2.636.7,3.826-1.734,4.482-2.005.402,5.631,1.195,10.704,2.21,15.237.384,1.713,1.98,4.365,1.79,5.763-3.449.55-2.274-3.78-3.329-5.693-1.481-2.683-6.568-2.478-3.663-7.298-4.98.924-3.933-5.691-8.007-6.01-.04-.344.074-.715,0-1Z" style="fill: #bababa;"/>
  <path d="M39.326,377c.557,1.949,1.676,3.862,2,5,.436,1.528-.427,4.446,0,6,.138.5,3.582,1.319,1.507,2.993-6.222-2.781-3.447-6.036-4.493-10.286-.074-.3-3.12-2.449-4.014-4.707-.24-.606.317-2.062-.056-2.929l-2.944-.071c.387-2.584,3.078-3.205,3.064-3.62-.023-.732-1.059-1.231-1.064-1.38-.073-1.835-.209-4.253,0-6,.022-.184.814-.618,1-1,1.76,3.843,3.715,11.503,5,16Z" style="fill: #e5bdb6;"/>
  <path d="M30.326,486c.436-4.356.414-8.778,2-13,.571-1.519,2.271-3.397,3-5,2.049,6.697.106,9.906-2.058,16.442-.642,1.939-.724,3.283-2.942,1.558Z" style="fill: #dcd285;"/>
  <path d="M36.326,460c-.017.052,1.12.376.782.763l-1.836.793,1.1,2.886-2.087,1.145c.046.913.813,1.668,1.041,2.413-.729,1.603-2.429,3.481-3,5l-1.143-4.849c-.566-.892-12.236-1.874.939-4.343.971-1.921.625-3.591,1.204-5.808l3,2Z" style="fill: #c5c5c3;"/>
  <path d="M39.326,446c.23,2.595.794,4.696,2.006,6.992l-2.784.168c-.368,2.419-1.502,4.581-2.222,6.841l-3-2c.082-.312-.089-.693,0-1,.938-3.251,1.139-.622,1-4-.023-.564-.133-1.685,0-2,.617-1.465,1.746-.438,2-5h3Z" style="fill: #bababa;"/>
  <path d="M31.326,373l2.944.071c.373.867-.184,2.323.056,2.929-1.374,1.764-.754,4.098,0,6-4.501,1.743-.945,6.247-2.97,9.933.946-.065,1.403.746,1.97,1.067h-3c-.925-4.717-.365-4.617,0-9,.028-.331-.03-.67,0-1s-.039-.672,0-1c.343-2.921.574-6.156,1-9Z" style="fill: #dfd679;"/>
  <path d="M35.326,435l4.005-.006c.225,3.612-.322,7.418-.005,11.006h-3c.223-3.997-1.282-7.861-1-11Z" style="fill: #dcd285;"/>
  <path d="M34.326,493c-.532,1.355-1.321,3.959-2,5-1.222,1.874-2.536,3.435-5,3,.141-.928-.22-2.238,0-3,.092-.319-.103-.717,0-1,.086-.235,2.782-3.878,3-4,.222-.124.66.094,1,0,.788-.217,2.08.147,3,0Z" style="fill: #acacab;"/>
  <path d="M30.326,488l1.994.004-.994,4.996c-.34.094-.778-.124-1,0-1.79-1.557-.093-3.4,0-5Z" style="fill: #dcd285;"/>
  <path d="M43.326,106c2.7,3.129,1.268,3.477,2.508,6.01.678,1.385,5.706,3.8,6.09,5.919l-4.546,9.501,4.898,1.617c1.561,5.473-1.751,4.699-1.95,4.954l-4-1c.041-.642.055-1.361,0-2-.289-3.37-2.595-16.591-4-19-.226-.387-.674-.686-1-1,.484-1.149-.794-4.405,2-5Z" style="fill: #dcd285;"/>
  <path d="M38.326,97c-.236.346.236,1.781,0,2-.195.181-1.428-.149-2,.009l.008.977c2.14.82,5.3,4.055,6.991,6.015-2.794.595-1.516,3.851-2,5-.131.31-5.062,3.315-6.025,1.523-1.71-4.098-3.912-4.08-5.98-7.041,4.609-2.042,3.802-4.818,5.005-8.482.039-.119,1-.388,1-1,.114.144,2.926-.476,3,1Z" style="fill: #969695;"/>
  <path d="M37.326,67c-1.47,4.115,5.292,14.906,8.93,17.635-3.495,4.453-4.843,6.616-3.883,12.704l-4.047,1.661c.236-.219-.236-1.654,0-2,.839-1.23,1.986-1.681,2.466-3.518.177-.676.232-10.069.016-10.55-.45-.999-5.838-4.113-6.482-6.932.106-.62-.078-1.356,0-2,.262-2.167.834-4.028,1-7,.611.114,1.357-.077,2,0Z" style="fill: #dcd285;"/>
  <path d="M50.326,134c-1.247,1.594-4.303,13.935-5,17l-1.99.999-.01-2.999c.503-2.587-.448-6.325,0-9,.494-2.952,2.657-1.645,3-7l4,1Z" style="fill: #dfd679;"/>
  <path d="M47.326,90c.59,2.257,3.05,1.937,4.952,2.06l.048,2.94c-.278.317.733,2.729-2,2-2.536-1.476-5.898-2.898-5.028-6.358.259-1.028,1.974-.551,2.028-.642Z" style="fill: #d8d064;"/>
  <path d="M43.326,149l.01,2.999,1.99-.999c-.598,2.627-1.64,5.301-2,8h-2c-.076-1.71-1.066-3.876-1-5,.031-.527.779-1.378,1-2,.313-.882,1.868-2.32,2-3Z" style="fill: #dcd285;"/>
  <path d="M32.326,830c-1.241,9.369-4.365,5.73-1,18,1.191,4.341,1.556,6.475,2,11l-2.14,7.864c-3.289.076-6.085.159-8.86,2.136-.012-2.137-1.818-4.425-1.923-6.578-.406-8.28-1.384-32.005.923-38.422,1.991-5.535,4.03-1.767,5.876-3.165.453-.343-.003-1.732.124-1.835.902-.734,2.854-1.288,3.99-2-.692,4.383,1.575,8.737,1.01,13Z" style="fill: #65a3ce;"/>
  <path d="M33.326,859c.161,1.641-.132,3.359.004,5.006l3.006-3.006c4.024,1.528.886,5.739.99,8-1.899,1.06-1.934,1.02-1.799,3.151.218,3.449.659,8.657,1.799,11.849-.031.33.028.669,0,1-5.061.943-1.925-2.45-3.341-4.765-.181-.296-1.351-.218-1.433-.407-.297-.684.994-1.729.634-2.635-.082-.207-3.085-2.951-3.305-2.982-3.127-.432-5.465,4.316-8.555,3.789.239-2.057,1.008-7.589,1-9,2.775-1.977,5.572-2.06,8.86-2.136l2.14-7.864Z" style="fill: #d9d476;"/>
  <path d="M23.326,802c.149,1.243,1.051,2.953,1,4-.105,2.153-1.693,4.57-2,8-.084.943.855,3.427.002,4.995l4.998.005c-.127.103.329,1.492-.124,1.835-1.846,1.398-3.885-2.37-5.876,3.165-2.487.807-2.908-3.393-2.9-4.595.044-6.785-.068-13.924-.1-20.405-.011-2.31-.139-4.7,0-7,1.66.349,2.229-.753,3-2,.051,3.242,1.533,8.093,2,12Z" style="fill: #acacab;"/>
  <path d="M38.326,820c-.106,1.755.092,7.753-2.995,6.995,1.09-4.836-.682-8.451-1.005-12.995-.047-.661.048-1.339,0-2s.018-1.337,0-2v-1c-.007-.666-.012-1.334,0-2,.979-.315.909-1.146,1-2,.035-.327-.014-.669,0-1,.071-1.656,0-3.34,0-5v-3c.524-.176.933-1.368,1.024-1.988,2.698-1.443.866,9.936.929,11.535.195,4.947,1.368,9.122,1.047,14.453Z" style="fill: #e5bdb6;"/>
  <path d="M32.326,830c5.089,3.015,1.367,6.795,1.047,9.545-.048.416,1.08.411,1.527.851.543.534.352,1.568.426,1.605v3c-1.216.203-2.72-.159-4.005-.002l.005,3.002c-3.365-12.27-.241-8.631,1-18Z" style="fill: #d3c769;"/>
  <path d="M24.326,806c3.395-.604,2.363.311,3.366,2.102,3.382,6.038.687,6.172-5.366,5.898.307-3.43,1.895-5.847,2-8Z" style="fill: #d9d476;"/>
  <path d="M38.326,881c-.086,1.186-.938,2.338-1,3-1.14-3.193-1.581-8.4-1.799-11.849-.135-2.131-.1-2.091,1.799-3.151.159,3.444,1.337,7.382,1,12Z" style="fill: #d7bfa2;"/>
  <path d="M35.326,799c0,1.66.071,3.344,0,5l-3.009-4.491,3.009-.509Z" style="fill: #d9d476;"/>
  <path d="M35.326,842c.693.342,2.968-.644,3.011.51.076,2.027-1.472,2.233-3.011,2.49v-3Z" style="fill: #d9d476;"/>
  <path d="M34.326,812c.048.661-.047,1.339,0,2l-2.005-.51.013-1.485,1.993-.005Z" style="fill: #d9d476;"/>
  <polygon points="31.316 809 29.346 807.5 30.831 806.005 31.316 809" style="fill: #d9d476;"/>
  <path d="M34.326,807c.003-.15-1.876-.927,1-2-.091.854-.021,1.685-1,2Z" style="fill: #d9d476;"/>
  <path d="M34.326,810c-.009-.333.003-.667,0-1v1Z" style="fill: #d9d476;"/>
  <path d="M20.326,765c-.149,1.293.044,2.687,0,4-1.476.766-1.124,3.47-1,5,.069.849.029,1.716,1,2-.236,1.162.184,2.757,0,4-.541,3.66-1.792,8.552-2,12-.139,2.3-.011,4.69,0,7h-2c-.148-9.472-.953-19.319-1-29l1.997.006-.996-5.996,4,.99Z" style="fill: #e5bdb6;"/>
  <path d="M35.326,766c.659,1.742.754,3.537,3,3-.029,3.56-.564,6.959-.747,10.459-.088,1.678.914,3.552.747,5.541-.028.338-1.274,4.095-2.991,3l-2.009-16c1.526-1.73,1-3.938,1-6h1Z" style="fill: #e5bdb6;"/>
  <path d="M34.326,763v3c0,2.062.526,4.27-1,6l-2,1c-2.324.205-4.121-.393-4-3,2.019-1.891,2.072-5.383,2-8,.557-.189.978-1.206,2.444-1.066,2.02.192,2.057,1.739,2.556,2.066Z" style="fill: #65a3ce;"/>
  <path d="M38.326,750h1c-.047,11.643-.15,23.359,0,35h-1c.167-1.988-.835-3.863-.747-5.541.183-3.5.719-6.899.747-10.459.038-4.658-.021-9.35-.002-14.008l-1.998.008c.088-1.323-.098-2.679,0-4,.025-.33-.045-.676,0-1h2Z" style="fill: #dcd285;"/>
  <path d="M27.326,770c-.121,2.607,1.676,3.205,4,3l.904.575c-.154,1.474,1.309,6.026-1.288,5.325l-5.623-1.92.007-5.981c.71-.539,1.845-.855,2-1Z" style="fill: #d3c769;"/>
  <path d="M29.326,762c.072,2.617.019,6.109-2,8-.155.145-1.29.461-2,1-2.155,1.637-4.346,1.777-5,5-.971-.284-.931-1.151-1-2,1.511-.699.956-2.686,1-4,6.163-.67,6.381-2.79,7-8,.62-.113,1.506.167,2,0Z" style="fill: #cdc094;"/>
  <path d="M21.326,790c-.771,1.247-1.34,2.349-3,2,.208-3.448,1.459-8.34,2-12,3.887,1.797.945,6.482,1,10Z" style="fill: #cdc094;"/>
  <path d="M34.326,204c-.08,1.323.035,2.672,0,4-.062,2.328.038,4.671,0,7-.032,1.973-2.052,4.187,1,6-.143.517.066,1.351,0,2-.44,4.298.769,5.76,1,9,.047.661-.044,1.339,0,2,.135,2.026.986,3.794,1,4,.111,1.616-1.093,5.077-1,8-.617.115-1.517-.171-2,0-1.602-3.036-4.551-2.782-6.295-3.944-1.266-.844-1.48-3.684-4.66-3.128,1.526-2.576-1.005-5.152-.888-6.248.15-1.411,4.978-4.16-1.157-3.68.546-3.931.006-9.765,0-14,4.175,2.187,3.989-1.919,6.067-3.435,1.303-.95,4.452-1.189,4.806-1.691,1.098-1.554-1.818-6.555,2.127-5.874Z" style="fill: #969695;"/>
  <path d="M35.326,193c-.379,1.964-.804,4.01-1,6-.161,1.626.099,3.355,0,5-3.945-.68-1.029,4.32-2.127,5.874-.354.502-3.503.741-4.806,1.691-2.078,1.515-1.892,5.622-6.067,3.435,0-.666.019-1.335,0-2-.037-1.282.188-1.891,0-4-.497-5.588-2.749-8.954,0-14,.07.003.401-1.103.978-1.015-.454,6.29,5.211,5.753,9.534,7.993l-1.519-3.501,2.096-1.072c.405-2.851-4.108-5.136,2.911-4.405Z" style="fill: #a2a2a1;"/>
  <path d="M38.326,184c3.582,1.541,2.035,4.051,2.367,6.314.131.889,1.338,1.7,1.437,2.375.145.989-3.02,5.112-.809,8.305l-3.499.038-3.496-2.033c.196-1.99.621-4.036,1-6,.114-.591,2.708-7.069,3-9Z" style="fill: #dfd679;"/>
  <path d="M35.326,221c.303-1.094,1.584-2.286,1.007-4.008l4.91,1.116.083,6.891c-.473.081-.879.523-1,1-1.421-1.772-2.33-3.478-5-3,.066-.649-.143-1.483,0-2Z" style="fill: #e5bdb6;"/>
  <path d="M34.326,208c4.245.469,4.722,1.642,3.85,5.859l-3.85,1.141c.038-2.329-.062-4.672,0-7Z" style="fill: #e5bdb6;"/>
  <path d="M32.326,531c3.169-.636,2.379,11.655,1.951,14.45-.258,1.685-1.908,2.828-2.046,5.038-.839,13.491,3.876,26.241.095,40.512-.681,2.57-.851,3-1,6-2.63-3.182.95-9.126-3-12,.012-1-.008-2,0-3l1.912-.103c.364-.931-.044-2.024.088-2.897.551-3.642-.929-3.262-.956-5.507-.02-1.633,1.792-2.895,1.514-4.562-.681-4.093-4.211-.501-3.558-3.931.448-3.279.392-6.314,1-10,.947-5.738.418-4.581-1-10-.895-3.271,3.962-7.218,4.038-7.662.472-2.757-1.421-4.308-2.038-6.338h3Z" style="fill: #dbb6b5;"/>
  <path d="M32.326,531h-3c-1.875-6.172.87-7.306.737-11.713-.042-1.397-1.414-2.563-1.737-4.287-.559-2.991-1.954-6.609-2-7-.063-.536.82-5.816,1-7,2.464.435,3.778-1.126,5-3v33Z" style="fill: #e5bdb6;"/>
  <path d="M38.326,341l-1.042,2.414,2.129,2.014-1.087,6.572c-.879-.176-2.044.134-3.002.008,1.347-2.86-1.535-6.298-1.629-7.519-.212-2.755,4.139-2.808,3.632-5.489.929.4.756,1.638,1,2Z" style="fill: #c6b453;"/>
  <rect x="47.331" y="366.005" width="3.99" height="1.99" style="fill: #d8cf56;"/>
  <polygon points="53.32 370.995 51.331 370.995 51.336 369.515 52.831 368.005 53.32 370.995" style="fill: #d8cf56;"/>
  <path d="M41.826,351c.649.333.649.667,0,1v-1Z" style="fill: #d8cf56;"/>
  <path d="M16.326,651c-1.913,6.864-.52,8.071,1.029,13.424.456,1.575-.082,3.505,1.971,4.576.006,1.667-.004,3.333,0,5l-4,1c.027-7.884-1.759-16.002-2-24,.999.021,2.002-.031,3,0Z" style="fill: #65a3ce;"/>
  <path d="M28.326,616c2.29-2.569,1.946-.26,2.002,1.483.208,6.498.258,12.136,1.998,18.517-1.406,8.384.003,19.228-1,27-1.134.108-1.959.697-2.99.999-.074-4.937,1.565-11.323-4.71-12.732-1.102-.247-2.088.765-2.299.733-1.629-.249-2.689-.928-5-1,.459-1.645-.444-1.641,2.012-2.5l-2.033-2.478-2.979,2.978c-.026-2.636-.153-5.374,0-8l5-1c.41,3.62,1.957,6.504,3.994,9.516,1.202.851,2.331-1.687,2.55-2.471,1.493-5.345,1.053-17.008,1.729-23.274.266-2.47,1.396-4.938,1.727-7.771Z" style="fill: #65a3ce;"/>
  <path d="M37.326,730c.323,2.678,1.421,11.542.994,13.34-.273,1.148-2.657-.883-.994,4.66-.202.645-.922,1.436-1,2-.045.324.025.67,0,1-.905,1.821-1.935,2.415-4,2-3.841-4.766-1.106-3.25-.037-7.555.371-1.495-.291-3.352.013-4.747.232-1.067,6.268-2.376,3.544-6.705-.922-1.465-2.492-1.162-4.52-4.993,1.661-.385,2.085.398,2.041,1.947l1.944.05,1.015-3.997c.04.307.808,1.409,1,3Z" style="fill: #d7bfa2;"/>
  <path d="M31.326,663c.654-.062,1.339.028,1.995-.005-1.196,12.674,3.009,25.449.005,38.005-.029-.331.029-.669,0-1-.578-6.675-2.356-13.29-3-19-.116-1.032.149-2.352,0-4-.03-.33.02-.668,0-1-.09-1.522-.077-5.437,0-7,.117-2.365.738-3.968,1-6Z" style="fill: #d7bfa2;"/>
  <path d="M33.326,701c.622,7.206.548,13.636,2,21,.091.462.537.865,1,1,.123.59-.091,1.36,0,2l-.98.5.98.5c.058.321-.043.673,0,1l-1.015,3.997-1.944-.05c.044-1.549-.38-2.331-2.041-1.947-.132-.249.121-.702,0-1,4.156-2.91.242-5.699.123-8.447-.146-3.359,1.431-7.499.823-12.001-.454-3.358-4.815-6.247,1.054-7.552.029.331-.029.669,0,1Z" style="fill: #daacb9;"/>
  <path d="M30.326,608c.837,1.767.929,4.231,3,5-.044.326.033.67,0,1l-.98.5.98.5c-.023.331.014.667,0,1s.009.667,0,1c-.041,1.502.023,2.892,0,4-.118,5.747-.062,9.407-1,15-1.74-6.381-1.79-12.019-1.998-18.517-.056-1.743.288-4.053-2.002-1.483.124-1.062-.203-3.32,0-5,.604-4.988.756-2.039,2-3Z" style="fill: #dbb6b5;"/>
  <path d="M33.326,621c.023-1.108-.041-2.498,0-4v4Z" style="fill: #d7bfa2;"/>
  <path d="M36.326,726l-.98-.5.98-.5c.047.327-.058.678,0,1Z" style="fill: #d7bfa2;"/>
  <path d="M36.326,723c-.463-.135-.909-.538-1-1,.472.138.901.526,1,1Z" style="fill: #d7bfa2;"/>
  <path d="M42.326,304c-.031,1.056-1.536,6.252-2.025,7.22-.124.245-2.233,2.724-2.975,3.78-1.183,1.683-3.147,2.416-3.993,4.511,2.975,1.344,4.854,3.979,6.009,6.978l-3.016.511c.037-.309.025-.687,0-1-.052-.658.074-1.338.003-1.998l-3.003-.002c-.291-.343-.779-.63-1-1-1.34-2.246-1.511-6.032-2-7,2.497-3.31,6.502-7.087,8-11l4-1Z" style="fill: #e5bdb6;"/>
  <path d="M33.326,324c.873,1.029,1.036,2.15,3,2,.025.313.037.691,0,1-.362,2.996-3.443,3.526-3.682,4.207-.5,1.431,1.273,5.462-2.318,6.793-.199-.163-.84.168-1,0-.766-.8-2.448-1.05-2.856-2.696-1.311-5.288,6.445-5.505,6.874-6.803,1.138-3.719-1.924-1.783-2.788-2.701-.568-.604-.111-1.69-.229-1.8l2-1c.221.37.709.657,1,1Z" style="fill: #c6b453;"/>
  <path d="M30.326,338c.174.143-.574,2.791,2,2-1.522,2.073-1.463,4.94-2,7-.195.747.387,1.891-1,2,.131-1.569-1.697-3.374-3-4,.92-.424.724-1.384,1-2,.737-1.641,1.856-3.115,2-5,.16.168.801-.163,1,0Z" style="fill: #cdc094;"/>
  <path d="M41.326,231c-.133,5.558-.649,7.62,0,14,.123,1.211-.346,2.505-.922,3.564l1.87.466.034,1.954c-6.455,1.69-1.25,8.799-.982,13.016.192,3.031-2.142,6.44,0,10l-1.994.007c-.422,1.133.985,1.882.994,1.993.055.656-.013,1.338,0,2h-4c.041-8.536-.041-16.371,0-25,.012-2.533.089-4.207,0-7-.093-2.923,1.111-6.384,1-8l-1-4c-.044-.661.047-1.339,0-2l2.012-2.5c-3.867-.565-1.658-3.436.504-3.506.322-.01,2.51,3.934,2.484,5.006ZM37.826,274v1c.649-.333.649-.667,0-1Z" style="fill: #dfd679;"/>
  <path d="M41.326,301c.109.771,1.034,1.844,1,3l-4,1c.749-1.957,1.375-3.207,1.021-5.495-.311-2.011-1.982-2.349-2.021-2.505-.273-1.093.23-2.811,0-4,3.171-2.705,3.088-10.69,3-15-.013-.662.055-1.344,0-2l1-2c-2.142-3.56.192-6.969,0-10,2.716-1.782,1.891-.973,1.999,1.483.478,10.941-3.329,26.147-1.999,35.517Z" style="fill: #d7bfa2;"/>
  <path d="M42.326,231c.209.861.981,1.836,1,2,.185,1.613-.123,3.364,0,5,.173,2.307-.12,4.685,0,7h-2c-.649-6.38-.133-8.442,0-14h1Z" style="fill: #dbb6b5;"/>
  <path d="M43.326,245l.992,1.992-.992-1.992Z" style="fill: #dfd679;"/>
  <path d="M28.326,593c-.305,4.247-2.619,5.88,1.71,8.941l1.29.059c-.039,2.165,2.138,3.577-1,6-1.244.961-1.396-1.988-2,3-.813-3.041-4.119-1.525-5-2-.995-.537-6.329-12.137-3-14,.17.222,3.796,1.132,3.993,3.518l1.977-1.004-3.052-11.435-4.918.921c-.869-4.781-1.881-12.893-1-17l7.854,3.673c2.66,4.124-3.532,16.248,3.146,19.327Z" style="fill: #d1cb83;"/>
  <path d="M31.326,597c-.05,1.007.029,3.393,0,5l-1.29-.059c-4.329-3.061-2.015-4.694-1.71-8.941.215-2.995-.037-4.839,0-8,3.95,2.874.37,8.818,3,12Z" style="fill: #bababa;"/>
  <path d="M33.326,615l-.98-.5.98-.5c-.033.329.023.668,0,1Z" style="fill: #d7bfa2;"/>
  <path d="M38.326,750h-2c.078-.564.798-1.355,1-2,.144.481,1.033,1.197,1,2Z" style="fill: #d1cb83;"/>
  <path d="M40.326,226c2.456,3.063,1.225,1.804,2,5h-1c.026-1.072-2.163-5.016-2.484-5.006-2.161.07-4.37,2.941-.504,3.506l-2.012,2.5c-.231-3.24-1.44-4.702-1-9,2.67-.478,3.579,1.228,5,3Z" style="fill: #d1cb83;"/>
  <path d="M18.326,799c.032,6.482.144,13.621.1,20.405-.008,1.202.413,5.402,2.9,4.595-2.308,6.417-1.329,30.141-.923,38.422.106,2.153,1.911,4.442,1.923,6.578.008,1.411-.761,6.943-1,9-.031.267-1.758,2.904-2,5-.03.259-.004,4.19,0,5,.003.661-.05,1.344,0,2,.045.591-.137,1.85,0,2l-2,1c-.129-31.287-.512-62.691-1-94h2Z" style="fill: #daacb9;"/>
  <path d="M19.326,737c5.54-1.055,1.445,3.817,1.086,6.574-.816,6.272,1.697,7.787,2.914,13.426-2.39.697-2.743,5.764-3,8l-4-.99.996,5.996-1.997-.006c-.016-3.192-.547-6.555.906-9.576l-1.962-.975c.747-1.856,1.104-3.426,1.055-5.448,5.812-.826,2.258-11.123,2.112-14.568-.023-.556,1.573.311,1.888-2.432Z" style="fill: #acacab;"/>
  <path d="M18.326,728c.095,2.573,1.429,5.266,1,9-.315,2.743-1.911,1.876-1.888,2.432.145,3.445,3.699,13.742-2.112,14.568-.184-7.572-.73-16.152-1-24l4-2Z" style="fill: #dbb6b5;"/>
  <path d="M19.326,892c.11.12,1.365-.274,1.759.181,1.244,1.44-.769,6.985-.835,9.336-.212,7.559.728,15.782.076,23.483-.466-1.061-2.191-2.934-3-4,.04-9.317.038-18.683,0-28l2-1Z" style="fill: #e5bdb6;"/>
  <path d="M16.326,710c3.019-.558,1.936,1.531,2,3.455.161,4.838-.178,9.72,0,14.545l-4,2c-.194-5.656-1.382-11.247-1-17l2.995-.005c.2-.93-.209-2.202.005-2.995Z" style="fill: #d7bfa2;"/>
  <path d="M30.326,324c.118.11-.34,1.196.229,1.8.865.918,3.926-1.017,2.788,2.701-.429,1.298-8.184,1.515-6.874,6.803.408,1.647,2.09,1.896,2.856,2.696-.144,1.885-1.263,3.359-2,5-7.873-.552-7.347-9.046-7-15,.081-1.396-.615-4.255.582-5.114,2.551-1.83,7.136-1.021,9.418,1.114Z" style="fill: #121113;"/>
  <path d="M23.326,311c.79,2.629,3.979,2.291,5,3,.138.096,1.924,1.85,2,2,.489.968.66,4.754,2,7l-2,1c-2.282-2.135-6.867-2.944-9.418-1.114-1.197.859-.501,3.718-.582,5.114l-1.997.006c.362-2.519.533-11.161,1.997-12.006.523-.302,1.857.042,2.529-.957.826-1.227.371-2.718.471-4.043Z" style="fill: #c7ba70;"/>
  <path d="M21.326,299c.373,1.458.752,3.642,2,5-.12,2.316.174,4.693,0,7-.1,1.325.356,2.816-.471,4.043-.673.999-2.006.655-2.529.957-.892-2.855-1.496-6.069-2-9-.307-1.783-1.224-3.489-1.073-5.378l2.067-1.612-2.989-3.005,4.995,1.995Z" style="fill: #e5bdb6;"/>
  <path d="M26.326,345c1.303.626,3.131,2.431,3,4-6.896-.151-11.689,2.527-10,10-.178.029-1.623,1.767-3,2h-1l3-6,4.027-11.006c1.086.969,3.224.646,3.973,1.006Z" style="fill: #e5bdb6;"/>
  <path d="M18.326,355l-3,6-1-4c1.22-.76,2.023-2.187,4-2Z" style="fill: #d7bfa2;"/>
  <path d="M37.326,127c.123.011,1.097-1.327,2.289-.924l2.885,4.768,3.826.157c.055.639.041,1.358,0,2-.343,5.355-2.506,4.048-3,7l-7.99-1.005-1.022,4.992c4.835.368,7.568,3.042,7.012,8.013-.221.622-.969,1.473-1,2-6.564.471-5.966,9.388-4.008,14.01l-2.007-.497c2.489,5.256-.712,10.116-1.935,15.037-.676,2.721.995,6.785-2.803,8.454-2.41,1.059-4.757.092-7.238,1.008,1.087-3.221-2.591-4.921-2.729-5.205-.366-.752.243-7.302.137-8.849l-4.416-5.958c-.23-1.916.059-4.512,0-5,4.083-2.787,1.808-4.691,2.01-7.486.205-2.84,2.002-5.294.083-8.09l1.95-.979c-1.655-2.424-.624-7.269,2.958-7.445.748,5.354,5.539,11.533,1,16.99,9.142-.117,15.584-6.091,9.308-14l-10.308-3.99c-.237-3.121.394-3.598,1-6l2.51,2.007,1.992-2.04,4.493,2.027.504-2.006.658,1.762,2.682.068c2.043-3.949,4.407-6.714,1.16-10.817ZM26.826,141v1c.649-.333.649-.667,0-1Z" style="fill: #bababa;"/>
  <path d="M20.326,107c4.295-.197,7.141,1.998,11.001,3.017l-2,3.972c3.53-.078,4.893,1.14,6.507,4.006l1.473-.002c-.241-3.966,5.323-2.398,5.019-5.993,1.405,2.409,3.711,15.63,4,19l-3.826-.157-2.885-4.768c-1.192-.403-2.166.935-2.289.924-.779-.069-2.169-1.325-3.415-1.082l-1.064,2.089-4.525-1.572c-.722,2.179-3.693,4.048-4.476,5.626-.793,1.599-.246,2.851-.52,3.939-.606,2.402-1.237,2.879-1,6,.025.33-.045.676,0,1-3.582.176-4.612,5.021-2.958,7.445l-1.95.979c1.919,2.796.122,5.25-.083,8.09-.201,2.795,2.073,4.699-2.01,7.486-.757-6.254-2.965-15.698-1-22,.651-2.087,4.014-5.381,4.009-7.491l-5.027-.992c-2.631-2.149,1.178-1.224,1.029-1.999-.44-2.29-4.12-2.257-3.035-5.901l2.037-2.111c-4.072-.741.181-6.3.987-9.506.532-2.115.27-6.793.5-7.062.202-.237,4.838-2.907,5.5-2.938ZM16.326,120c.618,1.24,2.841,7.012,3.501,6.98,2.204-4.754,6.741-3.763,10.52-6.499.35-8.188-7.115-4.23-7.026-10.481-5.138.343-5.357,3.551-5.083,7.955l-1.912.044-.996,1.498c.086.332.902.312.996.502Z" style="fill: #acacab;"/>
  <path d="M14.326,117c-.806,3.206-5.059,8.764-.987,9.506l-2.037,2.111c-1.085,3.644,2.595,3.611,3.035,5.901.149.775-3.659-.149-1.029,1.999l5.027.992c.005,2.11-3.359,5.404-4.009,7.491l-2.497-3.977-1.503.977c-.539-4.678-3.453-10.314-2-16,1.984-4.569,1.522-8.504,3-13,.322.93,1.888,3.531,3,4Z" style="fill: #969695;"/>
  <path d="M21.326,209c.188,2.109-.037,2.718,0,4l-3.994-1.003-.007,4.013-1.999-.01c-.013-1.978-.864-6.075-1-9l3-1,4,3Z" style="fill: #d7bfa2;"/>
  <path d="M21.326,195c-2.749,5.046-.497,8.412,0,14l-4-3,1.992-2.986c-6.915-2.577-.198-4.87.008-9.014.46.287,1.655.986,2,1Z" style="fill: #d1cb83;"/>
  <path d="M10.326,173c-1.948-5.164-3.738-10.984,0-16-.09,5.319.065,10.68,0,16Z" style="fill: #9a9898;"/>
  <path d="M20.326,408c.319,1.266.973,1.891,1,2,.065.494.526,1.043,1,1,.074.285-.04.656,0,1,.588,5.124-.921,9.706-1,14h-2c-.5-4.27-.993-10.012-1-14-.007-3.577.646-5.323,1-8,1.685.694.721,2.891,1,4Z" style="fill: #dcd285;"/>
  <path d="M11.326,113c-1.478,4.496-1.016,8.431-3,13-.395.91-1.489,1.967-2,3,.216-1.534-.312-3.612,0-5,.591-2.631,3.56-8.169,4-11h1Z" style="fill: #d7bfa2;"/>
  <path d="M20.326,482c1.871-1.059,3.636,5.338,3.676,5.674.237,1.978-.847,6.764-1.658,8.845l4.982.481c-.103.283.092.681,0,1-4.772,1.903-9.471,11.81-1,10,.046.391,1.441,4.009,2,7-1.762-.494-6.931.941-8,2-2.034-2.043-2.082-5.266-2-8,.158-5.239.027-9.016,0-14-.032-5.934.995-7.951,2-13Z" style="fill: #bababa;"/>
  <path d="M18.326,509c-.082,2.734-.034,5.957,2,8-.376.373-1.871,4.742-2.871,5.673l2.813,4.7c-.459,1.111-2.043,1.75-2.49,2.672-1.238,2.55,2.553,5.475-1.452,4.955-.228-.305-.825-.523-1-1,.326-2.69.154-3.8-1-6,.045-3.629.989-7.01,1-10,.008-2.33.015-4.671,0-7,.771-1.247,1.34-2.349,3-2Z" style="fill: #dbb6b5;"/>
  <path d="M15.326,511c0-.132-1.019-1.13-1.041-2.421-.096-5.853.143-11.732.051-17.574l3.99,3.995c.027,4.984.158,8.761,0,14-1.66-.349-2.229.753-3,2Z" style="fill: #65a3ce;"/>
  <path d="M20.326,479c.144-1.434-.343-2.857,1-4-.011.271,2.877,2.416-1,4Z" style="fill: #bababa;"/>
  <path d="M24.326,707c-.064,3.014,2.132,1.786,2.823,3.646,1.846,4.972,1.623,11.088,4.177,17.354.121.298-.132.751,0,1,2.028,3.831,3.598,3.529,4.52,4.993,2.724,4.329-3.311,5.638-3.544,6.705-.304,1.395.358,3.252-.013,4.747-1.069,4.305-3.804,2.789.037,7.555,1.152,1.43,1.58,3.056,4,3-.162,3.09-.113,4.006,0,7-.578-.131-1.699.197-2,0-.499-.327-.536-1.874-2.556-2.066-1.466-.14-1.887.877-2.444,1.066-.494.167-1.38-.113-2,0,.077-.65-.052-1.343,0-2l.702-.52c-.047-.31-.614-.318-.702-.48-.185-.337-.666-.787-1-1-.309-.197-.592-.904-1-1-.392-.093-1.65-.102-2,0-1.216-5.638-3.73-7.154-2.914-13.426.359-2.757,4.454-7.629-1.086-6.574.429-3.734-.905-6.427-1-9-.178-4.825.161-9.707,0-14.545-.064-1.924,1.019-4.013-2-3.455.224-.831.997-1.888,1-2,2.721,1.561,4.214-1.166,7-1Z" style="fill: #d9d476;"/>
  <path d="M30.326,676c.02.332-.03.67,0,1-1.025.994-.633,3.31-1,4-4.396,8.267-3.531,10.665-4,20l-4.506,2.976-1.503-3.46-2.991,1.484c-.517-4.387,1.025-2.917,1.771-5.736,1.97-7.449,1.079-14.568,2.229-22.264.049-.326-.055-.677,0-1,3.944-.388,5.966,3.828,10,3Z" style="fill: #dcd285;"/>
  <path d="M21.326,652c.212.032,1.197-.98,2.299-.733,6.275,1.409,4.636,7.795,4.71,12.732,1.031-.302,1.857-.891,2.99-.999-.262,2.032-.883,3.635-1,6l-5.018-.517,1.017-2.474c-5.53-.893-5.281,2.79-5.999,6.991-.055.323.049.674,0,1h-1c-.004-1.667.006-3.333,0-5-.017-4.64-.043-9.466,1-14l1-1c.173-.476-.117-1.385,0-2Z" style="fill: #a2a2a1;"/>
  <path d="M25.326,701c-.112,2.224-.966,4.418-1,6-2.786-.166-4.279,2.561-7,1,.051-1.867-.764-4.001-1-6l2.991-1.484,1.503,3.46,4.506-2.976Z" style="fill: #9a9898;"/>
  <path d="M21.326,229c6.135-.479,1.307,2.27,1.157,3.68-.117,1.096,2.414,3.672.888,6.248,3.18-.556,3.394,2.284,4.66,3.128,1.744,1.162,4.693.907,6.295,3.944-1.833.649-3.021,6.671-4,9-2.328,5.54-3.029,3.572-5,6l-4.86-.127-1.296-4.746-1.844-.127c-.053-.703-.988-1.924-1.006-3.448-.051-4.439,1.45-11.234-.994-14.552.651-1.349.848-3.86,1-4,.193-.178,2.548.331,3.541-.968.741-.969.221-2.307.459-3.032.114-.348.964-.744,1-1Z" style="fill: #acacab;"/>
  <path d="M17.326,256l1.844.127,1.296,4.746,4.86.127c-.324.399-.793,1.45-1,2-1.362,3.615-.978,8.253-3,12-.457-1.067-2.405-2.843-3-4-.923-1.793-.232-5.89-4-7,.141-.258-.143-.75,0-1,1.64-2.852,3.326-2.709,3-7Z" style="fill: #a2a2a1;"/>
  <path d="M17.326,256c.326,4.291-1.36,4.148-3,7-2.3-.703-1.932-2.586-2.058-4.446-.514-7.543.027-14.269,3.058-20.554,2.444,3.318.943,10.113.994,14.552.018,1.524.952,2.745,1.006,3.448Z" style="fill: #dbb6b5;"/>
  <path d="M21.326,213c.019.665,0,1.334,0,2,.006,4.235.546,10.069,0,14-.036.256-.886.652-1,1-6.224.302-3.511-4.506-3.279-7.804.134-1.906,1.465-3.675-1.721-3.196-.004-1,.007-2,0-3l1.999.01.007-4.013,3.994,1.003Z" style="fill: #dcd285;"/>
  <path d="M20.326,289c.329,1.364-.264,3.506,0,5-4.414-.055-2.027-.355-3.385-2.578-.268-.439-1.423-.5-1.577-1.143-.541-2.271-.591-7.121-1.039-10.279-.134-.949.107-2.032,0-3,1.66.349,2.229-.753,3-2,2.809,7.309.327,8.824,1.153,12.338.261,1.109,1.818,1.541,1.847,1.662Z" style="fill: #e5bdb6;"/>
  <path d="M15.326,219c3.185-.479,1.855,1.29,1.721,3.196-.232,3.297-2.944,8.105,3.279,7.804-.238.725.282,2.064-.459,3.032-.993,1.299-3.349.79-3.541.968-3.033.557-1.92-1.531-2-3.455-.176-4.181,1.011-8.788,1-11.545Z" style="fill: #d7bfa2;"/>
  <path d="M18.326,271l-1.994.005c-.402,1.675.49,2.684.994,3.995-.771,1.247-1.34,2.349-3,2-.339-3.067-2.004-8.886-1.945-10.595.067-1.944,1.747-2.042,1.945-2.405,3.768,1.11,3.077,5.207,4,7Z" style="fill: #d7bfa2;"/>
  <path d="M19.326,359c1.046-.171,3.491,1.168,4.906,1.094,1.713,3.397-2.151,3.793-1.926,5.388l1.524,2.466c.198.012.362-.941.496-.948.663-.034,1.334.006,1.993.006l.007,2.994c-.757.213-2.069-.209-3.257.205-3.928,1.368-1.423,3.971-1.743,6.795-.264,2.329-.998,4.617-1,6.995l5,.005c-1.892,4.458-3.851,6.001-5,11-.25,1.086-.024.616,0,1,.021.332-.016.667,0,1v1c-.389.227-.69.851-1,1-.825.396-2.868.884-3,1,.471-5.11-.282-11.038,0-16,.298-5.231,1.801-10.825,2-16,.084-2.173.172-5.155-1.976-5.667l-.024-1.333c1.377-.233,2.822-1.971,3-2Z" style="fill: #d7bfa2;"/>
  <path d="M19.326,404c-.354,2.677-1.007,4.423-1,8-9.024-.986-1.217-8.145,1-11,.394,2.084.235,1.223,0,3Z" style="fill: #65a3ce;"/>
  <path d="M21.326,398c-.331,1.441-1.232,2.011-2,3-.115-.609.078-1.358,0-2,.31-.149.611-.773,1-1h1Z" style="fill: #acacab;"/>
  <path d="M21.326,539c-.522,1.242.921,2.538,1,3,.055.323-.044.673,0,1-4.143,1.649-1.036,6.695-1,9,.094,5.998-.386,7.553-2,13-.417,1.407-1.508,2.708-2,5-.881,4.107.131,12.219,1,17,.374,2.058.748,6.36,2,8-3.329,1.863,2.005,13.463,3,14-3.606,2.077-1.544,7.717-2.125,11.375-1.16,7.296-3.79,11.543-2.875,19.625l-5,1c.159-2.73.575-6.298,1-9,1.488-9.452,5.555-16.237,3.941-26.44-.617-3.901-3.502-6.671-3.981-12.019-1.034-11.542.054-23.547,2.04-34.54.19-1.054.042-2.81,0-4-.043-1.221-1.018-2.848-1-4,.047-3.067,1.948-5.275,2-10,1.732-.174,2.09-1.14,4-2Z" style="fill: #dbb6b5;"/>
  <path d="M21.326,652c-.117.615.173,1.524,0,2-.024.066-.83.261-1,1-1.043,4.534-1.017,9.36-1,14-2.052-1.071-1.515-3.002-1.971-4.576-1.55-5.352-2.942-6.559-1.029-13.424,2.311.072,3.371.751,5,1Z" style="fill: #4393c7;"/>
  <path d="M13.326,649l2.979-2.978,2.033,2.478c-2.456.859-1.554.855-2.012,2.5-.998-.031-2.001.021-3,0-.02-.665.007-1.334,0-2Z" style="fill: #4393c7;"/>
  <path d="M25.326,67c3.455.657,3.825,3.989,4.006,7.01l4.994-.01c-.078.644.106,1.38,0,2-.455,2.662-.268,4.882-2,6.99l4.993-.986c1.865,5.983-4.875,5.856-4.995,10.993l2.888.081c.547.499-.163,2.574.114,2.922,0,.612-.961.881-1,1-2.64,1.247-3.182-2.016-3.611-2.057-2.021-.197-3.098,1.322-4.403,1.634-6.343,1.519-3.54-3.569-4.126-5.882-.305-1.203-1.711-1.441-1.86-1.695-.197-.337.131-1.415,0-2h1c.164.375,6.081,4.84,6.988,3.514l3.055-3.042-2.051-6.482c-1.773,1.199-6.559.646-8.024-.465-2-1.517.863-5.723-3.968-4.525-.012-.111-.936-1.908-1-2,4.892-.217,4.087-3.041,5-7,1.265.153,2.825-.223,4,0Z" style="fill: #acacab;"/>
  <path d="M20.326,87c.131.585-.197,1.663,0,2l-1.742,3.786,1.774,1.684-2.033,5.527,3.005.008-1.004,6.995c-.663.03-5.298,2.7-5.5,2.938-.229.27.032,4.948-.5,7.062-1.112-.469-2.678-3.07-3-4s.734-3.351-1-4c.078-.646-.093-1.362,0-2,2.436.486,2.227-1.08,2.684-2.768,1.079-3.983,1.308-8.516,2.402-12.452.294-1.06,1.337-.045,1.914-4.779h3Z" style="fill: #9a9898;"/>
  <path d="M17.326,76c4.831-1.198,1.968,3.007,3.968,4.525,1.466,1.112,6.252,1.665,8.024.465l2.051,6.482-3.055,3.042c-.907,1.326-6.824-3.139-6.988-3.514-.236-.539.485-2.252-.152-2.871-.603-.587-2.441.098-2.848-.129-.154-.085.425-2.768-2-2,.302-.791,1.084-5.222,1-6Z" style="fill: #bababa;"/>
  <path d="M16.326,82c2.425-.768,1.846,1.915,2,2-.552.925-.87,1.932-1,3-.577,4.735-1.62,3.719-1.914,4.779-1.094,3.936-1.322,8.47-2.402,12.452-.458,1.689-.248,3.254-2.684,2.768,1.565-10.761,2.044-14.641,6-25Z" style="fill: #dbb6b5;"/>
  <path d="M11.326,113h-1c.192-1.238-.155-2.726,0-4,1.734.649.676,3.066,1,4Z" style="fill: #dbb6b5;"/>
  <path d="M25.326,21l5.854,3.565c-1.106,1.548.082,4.239-.049,4.965-.124.683-1.447.407-1.547.957-.716,3.932-2.502,7.407,1.809,9.13l-1.088,3.389-3.97-1.007c.295,3.398-4.154,4.837-3.519,9.033l3.809,1.858,8.703-5.89.513.988c.497.045.992.022,1.487.012.134-1.242-.348-2.604.144-3.837l3.856-1.163c-.367,2.654-.545,4.93-4,5-.245,2.273-.539,3.59,0,6l-2.006.661c-.986,3.882.207,8.74.006,12.339-.885-.165-1.974.028-2.538-.933l-.909-6.118c-6.666-3.632-4.861,2.923-6.553,7.051-1.175-.223-2.735.153-4,0,.373-1.618,1.27-5.941.992-7.233-.205-.95-1.907-1.438-1.992-1.767-1.813-6.992.769-6.412,2-12,1.045-4.745-.103-4.489-1-9,6.501-.449,2.945-4.418,3.196-8.498.155-2.514.807-4.608.804-7.502Z" style="fill: #9a9898;"/>
  <path d="M34.326,962c-.202,6.394-.119,13.77-1,20-.029.204-.776.778-.922,1.59-.387,2.152,1.129,6.879-1.587,6.429-8.531-1.737-1.638-9.584-7.489-11.039v-.96c4.314-.64,4.661-6.345-.049-6.634.446-2.662-1.197-5.42-1.048-7.899.19-3.17,2.904-4.87,2.178-10.059-.271-1.935-2.128-1.4-2.139-1.953-.033-1.721,2.155-3.249,2.111-4.927-.013-.475-1.647-.44-1.969-1.309-1.287-3.476.858-7.359-2.087-9.239.166-1.807-.155-3.359,2-4,.405.527,6.458,5.169,7.485,5.073,2.802-.261,2.663-2.862,2.515-5.073l2.667-.542c-1.44,10.098-.347,20.395-.667,30.542ZM28.826,983v1c.649-.333.649-.667,0-1Z" style="fill: #a2a2a1;"/>
  <path d="M36.326,895c-.267,6.005.738,13.329.031,19.532-.401,3.524-2.337,5.137-2.031,9.468-4.462.381-2.16,5.614-2,8,.148,2.211.287,4.812-2.515,5.073-1.027.096-7.08-4.546-7.485-5.073-.634-.825-1.332-5.48-2-7,.652-7.701-.288-15.924-.076-23.483.066-2.351,2.079-7.896.835-9.336-.394-.456-1.649-.061-1.759-.181-.137-.15.045-1.409,0-2h1l3.93.116.133,2.765,4.934.127-.997,2.983c6.378,1.64,4.733-6.427,8.999-8.991-.181,2.402-.863,4.924-1,8ZM27.332,895.008l-3.012.002.715,1.784-1.699.812.765,2.258-1.691.556.92,4.588,8.993-1.014-.903-2.542c1.967-.878,2.249-.927,1.89-3.416l-6.992-1.042,1.013-1.984Z" style="fill: #dfd679;"/>
  <path d="M36.326,278c-.032,6.631-.358,7.965,1,15,.23,1.189-.273,2.907,0,4-3.753.178-4.365,4.062-5,7-4.086-3.255-3.665,2.993-4.51,3.011-.658-.709-4.307-2.812-4.49-3.011-1.248-1.358-1.627-3.542-2-5-.267-1.043-.855-2.231-1-3,2.562-1.212,3.241,1.91,3.436,1.894,3.921-.328,4.119-2.219,5.936-3.572.72-.536,2.144-.088,2.713-.921.942-1.379.465-4.472,1.892-5.918-3.214-.581-5.652-3.374-9.376-1.596-2.078,4.152.922,8.182-4.601,8.113-.264-1.494.329-3.636,0-5,2.918-1.105,2.186-6.171,2-9l9.995,2.002,1.068-10.394-2.117-1.121,1.914-4.839c-2.011-4.68-5.555-.549-8.861-2.647.207-.55.676-1.601,1-2,1.971-2.428,2.672-.46,5-6l6-2c-.041,8.629.041,16.464,0,25Z" style="fill: #9a9898;"/>
  <path d="M20.326,294c5.523.069,2.523-3.961,4.601-8.113,3.725-1.778,6.162,1.015,9.376,1.596-1.427,1.446-.95,4.539-1.892,5.918-.569.832-1.993.385-2.713.921-1.817,1.353-2.015,3.243-5.936,3.572-.195.016-.875-3.106-3.436-1.894-.116-.616.11-1.378,0-2Z" style="fill: #acacab;"/>
  <path d="M28.326,515c.322,1.725,1.694,2.89,1.737,4.287.133,4.406-2.612,5.541-.737,11.713.617,2.03,2.51,3.581,2.038,6.338-.076.444-4.933,4.391-4.038,7.662-.576-2.201-1.727-4.078-1.009-7.005-1.086.955-2.529-.045-2.991.005-.342.037-.704-.067-1,0-.884-2.856-2.759-.871-4-1-3.204-.334-1.528-1.37-2-2,4.005.52.214-2.405,1.452-4.955.447-.922,2.032-1.561,2.49-2.672l-2.813-4.7c1-.931,2.494-5.3,2.871-5.673,1.069-1.059,6.238-2.494,8-2Z" style="fill: #d9d476;"/>
  <path d="M22.326,538c-.069.016-.448.752-1,1-1.91.86-2.268,1.826-4,2,.005-.493-1.417-1.766-.896-2.861l1.896-1.139c1.241.129,3.116-1.856,4,1Z" style="fill: #d7bfa2;"/>
  <path d="M40.326,23c-1.021,3.21-1.324,6.654-1,10-5.388.769-4.126-5.615-5.004-8.49l-1.987.497,3.991-4.007c1.342-.285,3.336,1.956,4,2Z" style="fill: #8d8c90;"/>
  <path d="M35.326,18c-1.008.097-1.378-.513-2-1,.978-.055,1.467.177,2,1Z" style="fill: #daacb9;"/>
  <path d="M32.326,16c-.223-.312-.907-.594-1-1l1,1Z" style="fill: #daacb9;"/>
  <path d="M39.326,35c2.003,2.22,2.151-.138,2,6-.016.652.087,1.371,0,2l-3.856,1.163c-.492,1.233-.01,2.595-.144,3.837-.495.01-.99.033-1.487-.012l-.513-.988c.39-4.813-2.058-10.506,4-12Z" style="fill: #d7bfa2;"/>
  <path d="M34.326,924c.086,1.224-.229,2.67.962,3.554l3.038-.554c-.072,12.087.031,24.373,0,36l-4-1c.32-10.146-.773-20.443.667-30.542l-2.667.542c-.16-2.386-2.462-7.619,2-8Z" style="fill: #dbb6b5;"/>
  <path d="M37.326,968c-1.684-1.056-.686-2.461,1-3-.007,2.331-1,2.842-1,3Z" style="fill: #dbb6b5;"/>
  <path d="M21.326,878c3.09.527,5.428-4.221,8.555-3.789.22.03,3.223,2.775,3.305,2.982.36.906-.93,1.951-.634,2.635.082.189,1.252.111,1.433.407,1.416,2.315-1.72,5.708,3.341,4.765-.056.659.05,1.34,0,2-4.266,2.564-2.621,10.631-8.999,8.991l.997-2.983-4.934-.127-.133-2.765-3.93-.116.972-1.505-.972-.495,3-1.009c.291-2.185-1.798-3.797-4-3.991.242-2.096,1.969-4.733,2-5ZM29.826,876v1c.649-.333.649-.667,0-1Z" style="fill: #d3c769;"/>
  <path d="M38.326,927l-3.038.554c-1.191-.884-.876-2.331-.962-3.554-.306-4.331,1.63-5.944,2.031-9.468.706-6.203-.298-13.527-.031-19.532,1.688,1.037,1.859,2.711,2.023,4.479.768,8.287.028,18.949-.023,27.521Z" style="fill: #e5bdb6;"/>
  <path d="M21.826,948c.649.333.649.667,0,1v-1Z" style="fill: #a2a2a1;"/>
  <path d="M34.326,453c.139,3.378-.062.749-1,4l-4.995-1.99,5.995-2.01Z" style="fill: #c5c5c3;"/>
  <path d="M30.326,353c-2.496-1.146-5.128-.103-3.67,2.736.121.235,2.504,4.057,2.67,4.264l-3.007,3.495,3.002,1-4.995,2.505c-.133.007-.298.96-.496.948l-1.524-2.466c-.225-1.595,3.639-1.991,1.926-5.388-1.415.075-3.86-1.265-4.906-1.094-1.689-7.473,3.104-10.151,10-10,1.387-.109.805-1.253,1-2,3.623,1.092.195,4.398,0,6Z" style="fill: #d1cb83;"/>
  <path d="M30.326,353c-.346,2.844,2.602,4.948,4,8-.186.382-.978.816-1,1-1.227-.201-3.272-1.095-4-2-.166-.206-2.549-4.028-2.67-4.264-1.458-2.839,1.174-3.882,3.67-2.736Z" style="fill: #d7bfa2;"/>
  <path d="M39.326,377l3.994-.996-1.994,5.996c-.324-1.138-1.443-3.051-2-5Z" style="fill: #c6b453;"/>
  <path d="M20.326,408l5.058-10.966c.401-.307,5.329.748,5.775,1.183.468.456.016,1.542.167,1.783.994,1.583.956.67,2,1-.112.621.166,1.501,0,2-1.392,4.185-.229,2.752,0,5,.067.655-.047,1.341,0,2-.656.272-1.846,2.705-4.482,2.005l.49-1.997c-2.489-.847-5.172.825-7.008.992-.191-.733-.983-.931-1-1-.027-.109-.681-.734-1-2Z" style="fill: #acacab;"/>
  <path d="M34.326,397c2.558,3.3,4.557,9.496-1,11-.229-2.248-1.392-.815,0-5l2.01-.51-1.022-2.026c-.514-.382-.935.553-.988.536-1.044-.33-1.006.583-2-1l.931-.582c.132-.966-.723-1.715-.931-2.418h3Z" style="fill: #d7bfa2;"/>
  <path d="M33.326,393c1.124.636,4.12-.553,1,4h-3c-.448-1.513-.689-2.413-1-4h3Z" style="fill: #dbb6b5;"/>
  <path d="M33.326,368c.006.149,1.041.649,1.064,1.38.013.415-2.677,1.036-3.064,3.62-.426,2.844-.657,6.079-1,9-1.262-.157-2.833.227-4,0-.343-.067-.728-.915-1-1-.76-5.159,3.946-7.447,4-12,1.33-.345,2.662-.685,4-1Z" style="fill: #d7bfa2;"/>
  <path d="M33.326,362c-.209,1.747-.073,4.165,0,6-1.338.315-2.67.655-4,1-.894.232-1.939.702-3,1l-.007-2.994c-.659,0-1.33-.04-1.993-.006l4.995-2.505-3.002-1,3.007-3.495c.728.905,2.773,1.799,4,2Z" style="fill: #d3c769;"/>
  <path d="M30.326,382c-.039.328.03.669,0,1l-.98.5.98.5c-.365,4.383-.925,4.283,0,9,.311,1.587.552,2.487,1,4,.208.702,1.063,1.451.931,2.418l-.931.582c-.151-.241.301-1.327-.167-1.783-.446-.435-5.374-1.49-5.775-1.183l-5.058,10.966c-.279-1.109.685-3.306-1-4,.235-1.777.394-.916,0-3,.768-.989,1.669-1.559,2-3,.125-.542-.351-1.158-1-1-.016-.333.021-.668,0-1v-1c1.149-4.999,3.108-6.542,5-11,.288-.679.753-1.296,1-2,1.167.227,2.738-.157,4,0Z" style="fill: #a2a2a1;"/>
  <path d="M30.326,384l-.98-.5.98-.5c-.03.33.028.669,0,1Z" style="fill: #d7bfa2;"/>
  <path d="M27.326,501c-.18,1.184-1.063,6.464-1,7-8.471,1.81-3.772-8.097,1-10-.22.762.141,2.072,0,3Z" style="fill: #dcd285;"/>
  <path d="M20.326,89c.149.254,1.555.492,1.86,1.695.586,2.313-2.218,7.401,4.126,5.882,1.306-.313,2.383-1.831,4.403-1.634.429.042.971,3.304,3.611,2.057-1.204,3.664-.397,6.44-5.005,8.482,2.068,2.961,4.27,2.943,5.98,7.041.963,1.792,5.895-1.213,6.025-1.523.326.314.774.613,1,1,.304,3.595-5.26,2.027-5.019,5.993l-1.473.002c-1.614-2.866-2.977-4.084-6.507-4.006l2-3.972c-3.86-1.019-6.706-3.214-11.001-3.017l1.004-6.995-3.005-.008,2.033-5.527-1.774-1.684,1.742-3.786Z" style="fill: #a2a2a1;"/>
  <path d="M38.326,97c-.074-1.476-2.886-.856-3-1-.276-.348.433-2.423-.114-2.922l-2.888-.081c.12-5.137,6.86-5.01,4.995-10.993l-4.993.986c1.732-2.108,1.545-4.328,2-6.99.644,2.819,6.032,5.932,6.482,6.932.217.481.161,9.874-.016,10.55-.48,1.837-1.627,2.288-2.466,3.518Z" style="fill: #a2a2a1;"/>
  <path d="M35.326,67c-.166,2.972-.738,4.833-1,7l-4.994.01c-.182-3.02-.552-6.352-4.006-7.01,1.692-4.128-.113-10.682,6.553-7.051l.909,6.118c.564.961,1.653.768,2.538.933Z" style="fill: #a2a2a1;"/>
  <path d="M43.326,140c-.448,2.675.503,6.413,0,9-.132.68-1.687,2.118-2,3,.555-4.971-2.177-7.645-7.012-8.013l1.022-4.992,7.99,1.005Z" style="fill: #acacab;"/>
  <path d="M25.326,757l1,1c.334.213.815.663,1,1v1c-.052.657.077,1.35,0,2-.619,5.21-.837,7.33-7,8,.011-.333-.011-.667,0-1,.044-1.313-.149-2.707,0-4,.257-2.236.61-7.303,3-8,.35-.102,1.608-.093,2,0Z" style="fill: #65a3ce;"/>
  <path d="M20.326,770c-.044,1.314.511,3.301-1,4-.124-1.53-.476-4.234,1-5-.011.333.011.667,0,1Z" style="fill: #acacab;"/>
  <path d="M36.326,755l1.998-.008c-.019,4.658.04,9.35.002,14.008-2.246.537-2.341-1.258-3-3,.474-.873,1.037-2.011,1-3-.113-2.994-.162-3.91,0-7,.017-.332-.022-.668,0-1Z" style="fill: #d7bfa2;"/>
  <path d="M36.326,763c.037.989-.526,2.127-1,3h-1v-3c.301.197,1.422-.131,2,0Z" style="fill: #d1cb83;"/>
  <path d="M36.326,755c-.022.332.017.668,0,1-2.42.056-2.848-1.57-4-3,2.065.415,3.095-.179,4-2-.098,1.321.088,2.677,0,4Z" style="fill: #d1cb83;"/>
  <path d="M36.326,246c.089,2.793.012,4.467,0,7l-6,2c.979-2.329,2.167-8.351,4-9,.483-.171,1.383.115,2,0Z" style="fill: #a2a2a1;"/>
  <path d="M37.326,238c-.014-.206-.865-1.974-1-4l1,4Z" style="fill: #d1cb83;"/>
  <path d="M40.326,154c-.066,1.124.924,3.29,1,5,.334,7.547-.812,4.843-1.94,9.568-1.24,5.197-.432,11.277-1.06,15.432-.292,1.931-2.886,8.409-3,9-7.019-.731-2.506,1.554-2.911,4.405l-2.096,1.072,1.519,3.501c-4.324-2.24-9.988-1.702-9.534-7.993-.576-.088-.907,1.018-.978,1.015-.345-.014-1.54-.713-2-1-4.131-2.579-1.499-11.128-2.007-15.403-.24-2.021-1.648-3.727-1.993-6.597l4.416,5.958c.106,1.546-.503,8.096-.137,8.849.138.285,3.816,1.985,2.729,5.205,2.481-.915,4.828.052,7.238-1.008,3.798-1.669,2.126-5.733,2.803-8.454,1.223-4.921,4.424-9.781,1.935-15.037l2.007.497c-1.957-4.622-2.555-13.539,4.008-14.01Z" style="fill: #acacab;"/>
  <path d="M19.326,565c3.418-.32,5.148-.384,6.5,3.01.265-.002,1.467-2.77,1.5-3.01-.653,3.43,2.877-.162,3.558,3.931.278,1.667-1.535,2.93-1.514,4.562.028,2.245,1.507,1.865.956,5.507l-1.998-.003-.002,3.003c-.008,1,.012,2,0,3-.037,3.161.215,5.005,0,8-6.678-3.079-.486-15.203-3.146-19.327l-7.854-3.673c.492-2.292,1.583-3.593,2-5Z" style="fill: #65a3ce;"/>
  <path d="M24.326,549c.687.225,2.037-.302,2.926.042l1.074,5.958c-.608,3.686-.552,6.721-1,10-.033.24-1.235,3.008-1.5,3.01-1.352-3.394-3.083-3.331-6.5-3.01,1.614-5.447,2.094-7.002,2-13l3-3Z" style="fill: #d9d476;"/>
  <path d="M23.326,538c.462-.049,1.905.95,2.991-.005-.718,2.927.433,4.803,1.009,7.005,1.418,5.419,1.947,4.262,1,10l-1.074-5.958c-.889-.344-2.239.183-2.926-.042-3.059-1-1.698-3.747-2-6-.044-.327.055-.677,0-1l1-4Z" style="fill: #a2a2a1;"/>
  <path d="M30.326,579c-.132.873.276,1.966-.088,2.897l-1.912.103.002-3.003,1.998.003Z" style="fill: #bababa;"/>
  <path d="M23.326,609c.881.475,4.187-1.041,5,2-.203,1.68.124,3.938,0,5-.331,2.833-1.46,5.301-1.727,7.771-.676,6.266-.235,17.929-1.729,23.274-.219.785-1.348,3.322-2.55,2.471-2.038-3.011-3.584-5.896-3.994-9.516-.915-8.082,1.715-12.33,2.875-19.625.582-3.658-1.48-9.298,2.125-11.375Z" style="fill: #d9d476;"/>
  <path d="M33.326,700c-5.87,1.305-1.508,4.194-1.054,7.552.608,4.503-.97,8.643-.823,12.001.12,2.747,4.033,5.537-.123,8.447-2.554-6.265-2.331-12.381-4.177-17.354-.691-1.861-2.887-.632-2.823-3.646.034-1.582.888-3.776,1-6,.469-9.335-.396-11.733,4-20h1c.644,5.71,2.422,12.325,3,19Z" style="fill: #65a3ce;"/>
  <path d="M20.326,673c.718-4.2.469-7.883,5.999-6.991l-1.017,2.474,5.018.517c-.077,1.563-.09,5.478,0,7-4.034.828-6.056-3.388-10-3Z" style="fill: #c7ba70;"/>
  <path d="M30.326,681h-1c.367-.69-.025-3.006,1-4,.149,1.648-.116,2.968,0,4Z" style="fill: #c7ba70;"/>
  <path d="M37.326,297c.039.156,1.711.494,2.021,2.505.354,2.289-.272,3.538-1.021,5.495-1.498,3.913-5.503,7.69-8,11-.076-.15-1.862-1.904-2-2,2.572-1.307,2.791-4.393,3-7,.465-.139.905-.534,1-1,.124-.609-.13-1.399,0-2,.635-2.938,1.247-6.822,5-7Z" style="fill: #d9d476;"/>
  <path d="M33.326,324l3.003.002c.071.66-.054,1.34-.003,1.998-1.964.15-2.127-.971-3-2Z" style="fill: #dcd285;"/>
  <path d="M40.326,278c.088,4.31.171,12.295-3,15-1.358-7.035-1.032-8.369-1-15h4Z" style="fill: #d9d476;"/>
  <path d="M41.326,274l-1,2c-.009-.111-1.417-.86-.994-1.993l1.994-.007Z" style="fill: #d9d476;"/>
  <path d="M37.826,274c.649.333.649.667,0,1v-1Z" style="fill: #d9d476;"/>
  <path d="M18.326,587l4.918-.921,3.052,11.435-1.977,1.004c-.197-2.386-3.823-3.296-3.993-3.518-1.252-1.64-1.626-5.942-2-8Z" style="fill: #65a3ce;"/>
  <path d="M19.326,883c2.202.194,4.291,1.806,4,3.991l-3,1.009h-1c-.004-.81-.03-4.741,0-5Z" style="fill: #dfd679;"/>
  <path d="M20.326,890h-1c-.05-.656.003-1.339,0-2h1l.972.495-.972,1.505Z" style="fill: #e5bdb6;"/>
  <path d="M32.326,304c-.13.601.124,1.391,0,2l-1.998.012.998.988c-.209,2.607-.428,5.693-3,7-1.021-.709-4.21-.371-5-3,.174-2.307-.12-4.684,0-7,.183.199,3.832,2.302,4.49,3.011.844-.018.424-6.266,4.51-3.011Z" style="fill: #8d8c90;"/>
  <path d="M22.326,142l10.308,3.99c6.276,7.91-.166,13.884-9.308,14,4.539-5.457-.252-11.636-1-16.99-.045-.324.025-.67,0-1Z" style="fill: #c5c5c3;"/>
  <path d="M23.326,136c.275-1.088-.273-2.34.52-3.939.783-1.577,3.754-3.447,4.476-5.626l4.525,1.572,1.064-2.089c1.246-.243,2.636,1.013,3.415,1.082,3.248,4.103.883,6.868-1.16,10.817l-2.682-.068-.658-1.762-.504,2.006-4.493-2.027-1.992,2.04-2.51-2.007Z" style="fill: #c5c5c3;"/>
  <path d="M26.826,141c.649.333.649.667,0,1v-1Z" style="fill: #c5c5c3;"/>
  <path d="M16.326,118l1.912-.044c-.275-4.404-.055-7.612,5.083-7.955-.089,6.251,7.376,2.293,7.026,10.481-3.779,2.736-8.316,1.745-10.52,6.499-.659.031-2.882-5.74-3.501-6.98v-2Z" style="fill: #bababa;"/>
  <path d="M16.326,120c-.095-.19-.91-.169-.996-.502l.996-1.498v2Z" style="fill: #9a9898;"/>
  <path d="M22.326,411c-.474.043-.935-.506-1-1,.017.069.809.267,1,1Z" style="fill: #c5c5c3;"/>
  <path d="M26.326,758l-1-1c.408.096.691.803,1,1Z" style="fill: #acacab;"/>
  <path d="M27.326,760v-1c.089.162.655.17.702.48l-.702.52Z" style="fill: #cdc094;"/>
  <path d="M20.326,655c.17-.739.976-.934,1-1l-1,1Z" style="fill: #65a3ce;"/>
  <path d="M24.326,263c3.306,2.099,6.85-2.033,8.861,2.647l-1.914,4.839,2.117,1.121-1.068,10.394-9.995-2.002c-.145-2.195-.092-2.88-1-5,2.022-3.747,1.638-8.385,3-12Z" style="fill: #8d8c90;"/>
  <path d="M18.326,271c.595,1.157,2.543,2.933,3,4,.908,2.12.855,2.805,1,5,.186,2.829.918,7.895-2,9-.029-.121-1.587-.553-1.847-1.662-.826-3.514,1.656-5.029-1.153-12.338-.504-1.311-1.396-2.32-.994-3.995l1.994-.005Z" style="fill: #dcd285;"/>
  <path d="M29.326,369c-.054,4.553-4.76,6.841-4,12-.738-.231-2.089.186-3.001-.004l.992-4.994-1.991.999c.32-2.824-2.185-5.428,1.743-6.795,1.188-.414,2.5.008,3.257-.205,1.061-.298,2.106-.768,3-1Z" style="fill: #cbc360;"/>
  <path d="M21.326,377l1.991-.999-.992,4.994c.912.191,2.263-.226,3.001.004.272.085.657.933,1,1-.247.704-.712,1.321-1,2l-5-.005c.002-2.379.736-4.666,1-6.995Z" style="fill: #d3c769;"/>
  <path d="M20.326,396c-.024-.384-.25.086,0-1v1Z" style="fill: #dbb6b5;"/>
  <path d="M21.326,398h-1v-1c.649-.158,1.125.458,1,1Z" style="fill: #dbb6b5;"/>
  <path d="M22.326,543c.302,2.253-1.059,5,2,6l-3,3c-.036-2.305-3.143-7.351,1-9Z" style="fill: #acacab;"/>
  <path d="M22.326,542c-.079-.462-1.522-1.758-1-3,.552-.248.931-.984,1-1,.296-.067.658.037,1,0l-1,4Z" style="fill: #acacab;"/>
  <path d="M18.326,84c.406.226,2.244-.458,2.848.129.637.62-.084,2.333.152,2.871h-4c.13-1.068.448-2.075,1-3Z" style="fill: #a2a2a1;"/>
  <path d="M28.826,983c.649.333.649.667,0,1v-1Z" style="fill: #9a9898;"/>
  <path d="M27.332,895.008l-1.013,1.984,6.992,1.042c.359,2.49.077,2.538-1.89,3.416l.903,2.542-8.993,1.014-.92-4.588,1.691-.556-.765-2.258,1.699-.812-.715-1.784,3.012-.002Z" style="fill: #d3c769;"/>
  <path d="M29.826,876c.649.333.649.667,0,1v-1Z" style="fill: #d9d476;"/>
  <path d="M33.326,401c.054.017.475-.919.988-.536l1.022,2.026-2.01.51c.166-.499-.112-1.379,0-2Z" style="fill: #dbb6b5;"/>
  <path d="M32.326,306c-.095.466-.535.861-1,1l-.998-.988,1.998-.012Z" style="fill: #9a9898;"/>
</svg>